<svg width="50" height="50" viewBox="0 0 50 50" fill="none" xmlns="http://www.w3.org/2000/svg">
<g clip-path="url(#clip0)">
<path d="M6.46469 23.9122C6.7583 23.9134 7.05048 23.8713 7.33178 23.7872C7.57228 23.7249 7.79507 23.6077 7.98272 23.4449L8.07392 22.5228L7.48296 22.4628L7.37926 23.0875C7.11539 23.2186 6.82283 23.2814 6.52841 23.27C6.34308 23.2779 6.15807 23.2478 5.98486 23.1814C5.81164 23.115 5.6539 23.0137 5.5214 22.8839C5.26568 22.6265 5.13783 22.2463 5.13783 21.7432C5.13783 21.2626 5.25819 20.8836 5.49891 20.6062C5.61714 20.4714 5.76395 20.3647 5.92864 20.2938C6.09334 20.2229 6.27177 20.1896 6.45095 20.1964C6.78066 20.186 7.10613 20.2729 7.38675 20.4463L7.49045 21.031L8.08142 20.9723L7.97147 20.059C7.79485 19.9077 7.59259 19.7892 7.37426 19.7092C7.08316 19.6026 6.7746 19.5517 6.46469 19.5592C6.04042 19.5418 5.62163 19.66 5.26902 19.8966C4.96545 20.1118 4.72722 20.4067 4.5806 20.7487C4.4363 21.0763 4.36102 21.4302 4.35945 21.7882C4.34921 22.0701 4.39667 22.3512 4.49894 22.6142C4.6012 22.8772 4.75611 23.1165 4.95417 23.3174C5.15207 23.5144 5.38817 23.6687 5.64794 23.771C5.90771 23.8733 6.18566 23.9213 6.46469 23.9122Z" fill="black"/>
<path d="M10.0061 23.9129C10.212 23.9218 10.4176 23.8894 10.6107 23.8175C10.8039 23.7456 10.9806 23.6357 11.1306 23.4944C11.2752 23.351 11.3884 23.1791 11.4628 22.9896C11.5372 22.8001 11.5713 22.5971 11.5629 22.3936C11.571 22.0028 11.4379 21.6222 11.1881 21.3216C10.9382 21.0185 10.5592 20.8669 10.0511 20.8669C9.543 20.8669 9.16402 21.0197 8.91414 21.3254C8.6581 21.6318 8.52182 22.0207 8.53057 22.4199C8.52016 22.62 8.55081 22.8201 8.62064 23.0079C8.69047 23.1957 8.79801 23.3672 8.93663 23.5119C9.07877 23.6472 9.24674 23.7525 9.4305 23.8214C9.61427 23.8903 9.81004 23.9214 10.0061 23.9129ZM9.45388 21.6752C9.52243 21.5885 9.61066 21.5193 9.71126 21.4735C9.81185 21.4277 9.92192 21.4064 10.0324 21.4116C10.1416 21.4084 10.2501 21.4291 10.3505 21.4723C10.4508 21.5154 10.5405 21.58 10.6133 21.6615C10.7749 21.8632 10.8548 22.1183 10.837 22.3761C10.8485 22.633 10.7728 22.8862 10.6221 23.0946C10.553 23.1846 10.4632 23.2568 10.3603 23.3048C10.2575 23.3529 10.1445 23.3755 10.0311 23.3707C9.91672 23.3774 9.80252 23.3546 9.69947 23.3045C9.59642 23.2544 9.50798 23.1787 9.44264 23.0846C9.30525 22.8767 9.23583 22.6314 9.24398 22.3824C9.23084 22.1296 9.30494 21.8799 9.45388 21.6752Z" fill="black"/>
<path d="M13.5919 23.3157H13.0459V22.1712C13.047 21.9816 13.1058 21.7968 13.2146 21.6415C13.2716 21.564 13.3474 21.5021 13.4348 21.4617C13.5221 21.4213 13.6183 21.4036 13.7143 21.4104C13.7907 21.4061 13.867 21.4194 13.9374 21.4493C14.0078 21.4792 14.0704 21.5249 14.1204 21.5828C14.2178 21.6977 14.2666 21.8939 14.2666 22.1712V23.3144H14.1117V23.8467H15.3985V23.3157H14.9625V22.1837C14.9641 21.9938 15.0219 21.8086 15.1287 21.6515C15.1851 21.5731 15.2607 21.5106 15.3481 21.4697C15.4356 21.4288 15.5321 21.4109 15.6284 21.4179C15.7057 21.4136 15.783 21.4269 15.8544 21.4567C15.9258 21.4866 15.9895 21.5322 16.0407 21.5903C16.1382 21.7052 16.1869 21.9014 16.1869 22.1787V23.3219H16.0245V23.8542H17.3114V23.3157H16.8828V21.9189C16.8828 21.559 16.7833 21.295 16.5842 21.1267C16.3909 20.9616 16.1438 20.8727 15.8895 20.8769C15.674 20.8696 15.4619 20.9323 15.2848 21.0555C15.1188 21.1775 14.9892 21.3426 14.91 21.5328C14.856 21.3264 14.7262 21.148 14.5464 21.033C14.3703 20.9264 14.1677 20.8714 13.9617 20.8744C13.7668 20.8685 13.5746 20.9207 13.4095 21.0243C13.2588 21.1232 13.1341 21.2569 13.0459 21.4141V20.9343H11.9214V21.4741H12.3562V23.3157H11.9165V23.8479H13.5919V23.3157Z" fill="black"/>
<path d="M22.5451 21.9189C22.5451 21.559 22.4456 21.295 22.2465 21.1267C22.0531 20.9616 21.8061 20.8727 21.5518 20.8769C21.3363 20.8696 21.1241 20.9323 20.9471 21.0555C20.7811 21.1775 20.6515 21.3426 20.5723 21.5328C20.5183 21.3264 20.3885 21.148 20.2087 21.033C20.0326 20.9264 19.8299 20.8714 19.624 20.8744C19.4291 20.8685 19.2369 20.9207 19.0718 21.0243C18.9211 21.1232 18.7964 21.2569 18.7082 21.4141V20.9343H17.5837V21.4741H18.0123V23.3157H17.5775V23.8479H19.2542V23.3157H18.7082V22.1712C18.7093 21.9816 18.7681 21.7968 18.8769 21.6415C18.9339 21.564 19.0097 21.5021 19.097 21.4617C19.1844 21.4213 19.2806 21.4036 19.3766 21.4104C19.453 21.4061 19.5293 21.4194 19.5997 21.4493C19.6701 21.4792 19.7327 21.5249 19.7827 21.5828C19.8801 21.6977 19.9289 21.8939 19.9289 22.1712V23.3144H19.7727V23.8467H21.0596V23.3157H20.6248V22.1837C20.6264 21.9938 20.6842 21.8086 20.791 21.6515C20.8474 21.5731 20.923 21.5106 21.0104 21.4697C21.0979 21.4288 21.1944 21.4109 21.2907 21.4179C21.368 21.4136 21.4452 21.4269 21.5167 21.4567C21.5881 21.4866 21.6518 21.5322 21.703 21.5903C21.8021 21.7011 21.8517 21.8947 21.8517 22.1712V23.3144H21.6893V23.8467H22.9762V23.3157H22.5476L22.5451 21.9189Z" fill="black"/>
<path d="M24.7341 20.8656C24.2343 20.8656 23.8553 21.0185 23.5971 21.3241C23.3411 21.6306 23.2048 22.0194 23.2135 22.4186C23.2031 22.6187 23.2338 22.8188 23.3036 23.0066C23.3734 23.1944 23.481 23.3659 23.6196 23.5106C23.7624 23.6469 23.9313 23.7529 24.1162 23.822C24.3011 23.8912 24.4981 23.9221 24.6953 23.9129C24.9012 23.9218 25.1068 23.8894 25.2999 23.8175C25.4931 23.7456 25.6699 23.6357 25.8198 23.4944C25.9644 23.351 26.0776 23.1791 26.152 22.9896C26.2264 22.8 26.2605 22.5971 26.2521 22.3936C26.2602 22.0028 26.1271 21.6222 25.8773 21.3216C25.6216 21.0176 25.2405 20.8656 24.7341 20.8656ZM25.3125 23.0908C25.2438 23.1804 25.1546 23.2522 25.0525 23.3002C24.9503 23.3482 24.8381 23.3711 24.7253 23.3669C24.6109 23.3737 24.4967 23.3509 24.3937 23.3008C24.2906 23.2507 24.2022 23.1749 24.1368 23.0808C23.9995 22.873 23.93 22.6276 23.9382 22.3786C23.9249 22.127 23.9981 21.8783 24.1456 21.674C24.2144 21.5873 24.3029 21.5183 24.4037 21.4727C24.5045 21.427 24.6148 21.4061 24.7253 21.4116C24.8345 21.4084 24.9431 21.4291 25.0434 21.4723C25.1438 21.5154 25.2335 21.58 25.3063 21.6615C25.4679 21.8632 25.5477 22.1183 25.5299 22.3761C25.5399 22.632 25.4633 22.8838 25.3125 23.0908Z" fill="black"/>
<path d="M29.7229 21.9189C29.7229 21.559 29.6234 21.295 29.4243 21.1267C29.2245 20.9591 28.9704 20.8702 28.7097 20.8769C28.5145 20.865 28.3199 20.9087 28.1485 21.0029C27.9771 21.0971 27.836 21.2379 27.7414 21.4091V20.9343H26.5919V21.4741H27.0467V23.3157H26.5994V23.8479H28.1649V23.3157H27.7301V22.1525C27.7293 21.9587 27.8001 21.7714 27.9288 21.6265C27.9949 21.5544 28.0761 21.4978 28.1666 21.4607C28.2571 21.4235 28.3546 21.4068 28.4523 21.4116C28.5301 21.4075 28.6079 21.4208 28.6799 21.4507C28.7518 21.4805 28.8162 21.5261 28.8683 21.584C28.9683 21.699 29.0183 21.8951 29.0183 22.1725V23.3157H28.5985V23.8479H30.1577V23.3157H29.7229V21.9189Z" fill="black"/>
<path d="M35.6551 19.625H34.0571V20.2422H34.5319L33.5573 22.7435H33.5249L32.5241 20.2422H32.9914V19.625H31.3284V20.2422H31.7307L33.2387 23.8479H33.7585L35.2653 20.2422H35.6551V19.625Z" fill="black"/>
<path d="M36.8895 20.8656C36.3897 20.8656 36.0107 21.0185 35.7525 21.3241C35.4965 21.6306 35.3602 22.0194 35.369 22.4186C35.3586 22.6187 35.3892 22.8188 35.459 23.0066C35.5289 23.1944 35.6364 23.3659 35.775 23.5106C35.9171 23.6462 36.085 23.7517 36.2688 23.8208C36.4525 23.8899 36.6484 23.9212 36.8445 23.9129C37.0504 23.9218 37.256 23.8894 37.4491 23.8175C37.6423 23.7456 37.819 23.6357 37.969 23.4944C38.1136 23.351 38.2267 23.1791 38.3012 22.9896C38.3756 22.8 38.4097 22.5971 38.4013 22.3936C38.4094 22.0028 38.2763 21.6222 38.0265 21.3216C37.7757 21.0176 37.3968 20.8656 36.8895 20.8656ZM37.4692 23.0908C37.4001 23.1809 37.3103 23.253 37.2075 23.3011C37.1046 23.3491 36.9917 23.3717 36.8783 23.3669C36.7639 23.3737 36.6497 23.3509 36.5466 23.3008C36.4436 23.2507 36.3551 23.1749 36.2898 23.0808C36.154 22.8729 36.0859 22.6281 36.0949 22.3799C36.0816 22.1282 36.1548 21.8796 36.3023 21.6752C36.3708 21.5885 36.4591 21.5193 36.5597 21.4735C36.6603 21.4277 36.7703 21.4064 36.8808 21.4116C36.9899 21.4084 37.0985 21.4291 37.1989 21.4723C37.2992 21.5154 37.3889 21.58 37.4617 21.6615C37.6233 21.8632 37.7032 22.1183 37.6854 22.3761C37.6957 22.6319 37.6196 22.8837 37.4692 23.0908Z" fill="black"/>
<path d="M39.9105 20.9306H38.7611V21.4703H39.2221V23.3157H38.7873V23.8479H40.3453V23.3157H39.9105V20.9306Z" fill="black"/>
<path d="M39.8918 19.56H39.1834V20.3271H39.8918V19.56Z" fill="black"/>
<path d="M42.1195 23.3544C41.6197 23.3544 41.3698 23.0383 41.3698 22.4061C41.3698 21.7565 41.6122 21.4316 42.097 21.4316C42.2729 21.4313 42.4464 21.4714 42.6043 21.549L42.7017 22.0301L43.2602 21.9713L43.1428 21.153C42.9842 21.056 42.8125 20.9824 42.633 20.9343C42.4631 20.8915 42.2885 20.8696 42.1132 20.8694C41.916 20.8616 41.7193 20.8958 41.5363 20.9697C41.3532 21.0436 41.1879 21.1554 41.0513 21.2979C40.7713 21.6085 40.6253 22.0172 40.6452 22.4349C40.6452 22.9155 40.7764 23.2816 41.0388 23.5331C41.1751 23.6597 41.3352 23.758 41.5098 23.8223C41.6843 23.8866 41.8699 23.9157 42.0558 23.9079C42.4972 23.9079 42.8179 23.7876 43.0178 23.5468C43.2038 23.3362 43.3238 23.0755 43.3626 22.7972L42.7779 22.6873C42.703 23.132 42.4835 23.3544 42.1195 23.3544Z" fill="black"/>
<path d="M45.8615 22.8472C45.8272 22.9761 45.7615 23.0946 45.6703 23.192C45.6057 23.2516 45.5292 23.2968 45.4459 23.3248C45.3625 23.3528 45.2743 23.3629 45.1868 23.3544C44.7062 23.3544 44.4463 23.0816 44.4071 22.5361H46.3762C46.4011 22.4076 46.4141 22.2771 46.4149 22.1463C46.4183 21.9777 46.3881 21.8101 46.3261 21.6533C46.2641 21.4965 46.1716 21.3536 46.0539 21.2329C45.7738 20.9866 45.4094 20.8581 45.0367 20.8744C44.6641 20.8907 44.3123 21.0505 44.0548 21.3204C43.7997 21.6356 43.6666 22.0321 43.68 22.4374C43.68 22.9221 43.8166 23.289 44.0898 23.5381C44.3771 23.793 44.7517 23.9273 45.1355 23.9129C45.4697 23.9322 45.7996 23.8306 46.0651 23.6268C46.1686 23.5454 46.255 23.4443 46.3194 23.3294C46.3837 23.2144 46.4247 23.0879 46.4399 22.9571L45.8615 22.8472ZM44.6121 21.5978C44.669 21.5279 44.7417 21.4726 44.8243 21.4366C44.9069 21.4005 44.9969 21.3846 45.0868 21.3904C45.1818 21.3817 45.2774 21.3986 45.3637 21.4392C45.4501 21.4798 45.524 21.5428 45.5778 21.6215C45.6752 21.7657 45.7194 21.9393 45.7028 22.1125H44.4159C44.4333 21.9247 44.502 21.7453 44.6146 21.594L44.6121 21.5978Z" fill="black"/>
<path d="M16.979 28.5994C16.9767 28.6273 16.9805 28.6553 16.9902 28.6816C16.9999 28.7078 17.0153 28.7316 17.0352 28.7513C17.0551 28.7709 17.079 28.786 17.1054 28.7954C17.1317 28.8047 17.1598 28.8082 17.1877 28.8056C17.3738 28.8056 17.5725 28.6719 17.585 28.3683C17.4978 28.3543 17.4097 28.3464 17.3214 28.3445C17.1352 28.3483 16.979 28.4008 16.979 28.5994Z" fill="black"/>
<path d="M9.80496 28.7818C10.0761 28.7818 10.2547 28.5632 10.2547 28.2146C10.2547 27.8398 10.0561 27.6799 9.80871 27.6799C9.54134 27.6799 9.37517 27.8785 9.37517 28.2221C9.37642 28.5382 9.52135 28.7818 9.80496 28.7818Z" fill="black"/>
<path d="M4.36007 30H18.9656V25.8245H4.36007V30ZM16.6042 27.445C16.8487 27.3302 17.1163 27.2733 17.3863 27.2788C17.7799 27.2788 18.111 27.4812 18.111 27.9035V28.6981C18.111 28.8031 18.151 28.8393 18.2359 28.8393C18.2622 28.8388 18.2883 28.8346 18.3134 28.8268V29.1017C18.2124 29.1563 18.0996 29.1855 17.9848 29.1866C17.9342 29.1902 17.8835 29.1835 17.8356 29.1669C17.7877 29.1503 17.7437 29.1241 17.7062 29.09C17.6687 29.0559 17.6386 29.0146 17.6175 28.9685C17.5965 28.9224 17.585 28.8725 17.5837 28.8218C17.529 28.9308 17.4451 29.0226 17.3415 29.0869C17.2379 29.1513 17.1185 29.1858 16.9965 29.1866C16.7329 29.1866 16.433 29.0442 16.433 28.6644C16.433 28.2146 16.8666 28.1096 17.2839 28.1096C17.3841 28.1088 17.4842 28.1142 17.5837 28.1259V28.0559C17.5837 27.8698 17.5837 27.6474 17.2839 27.6474C17.1877 27.6408 17.0913 27.6588 17.004 27.6998L16.9453 27.906L16.528 27.861L16.6042 27.445ZM16.4905 26.3555L15.6971 29.1417H15.1824L15.972 26.3542L16.4905 26.3555ZM14.915 26.3555H15.4298L14.6352 29.1417H14.1204L14.915 26.3555ZM13.2308 27.315H13.7781V27.971H13.2308V27.315ZM13.2308 28.4857H13.7781V29.1417H13.2308V28.4857ZM11.1268 27.315H12.7311L12.771 27.5899L11.7578 28.7443H12.3562L12.4412 28.4607L12.8548 28.5007L12.7311 29.1417H11.1393L11.0868 28.8668L12.0864 27.7123H11.5204L11.4392 27.996L11.0644 27.956L11.1268 27.315ZM9.81746 27.2788C10.4734 27.2788 10.7932 27.7198 10.7932 28.2308C10.7932 28.8143 10.3722 29.1829 9.79372 29.1829C9.23024 29.1829 8.84167 28.8381 8.84167 28.2546C8.83668 27.7198 9.16152 27.2788 9.81746 27.2788ZM5.22715 28.7456H5.46954V27.7123H5.22715V27.315H5.99304V27.5899C6.04731 27.4914 6.12798 27.41 6.22597 27.3548C6.32397 27.2996 6.43541 27.2729 6.54777 27.2775C6.67641 27.2694 6.8042 27.3034 6.91176 27.3744C7.01931 27.4454 7.10076 27.5496 7.14374 27.6711C7.18926 27.5527 7.27045 27.4513 7.3761 27.381C7.48175 27.3107 7.60662 27.275 7.73345 27.2788C7.81745 27.2738 7.90154 27.2868 7.98011 27.3169C8.05868 27.347 8.12992 27.3935 8.18906 27.4533C8.24821 27.5132 8.29388 27.585 8.32304 27.6639C8.3522 27.7428 8.36418 27.8271 8.35816 27.911V28.7456H8.60804V29.1429H7.84465V28.1134C7.84465 27.7973 7.7397 27.6761 7.5323 27.6761C7.28242 27.6761 7.17997 27.8548 7.17997 28.1096V28.7456H7.4236V29.1429H6.65647V28.1134C6.65647 27.7973 6.55152 27.6761 6.34412 27.6761C6.09424 27.6761 5.99179 27.8548 5.99179 28.1096V28.7456H6.34037V29.1429H5.22715V28.7456Z" fill="black"/>
<path d="M15.6959 29.1417L16.4868 26.3542H15.972L15.1824 29.1417H15.6959Z" fill="black"/>
<path d="M15.6959 29.1417L16.4868 26.3542H15.972L15.1824 29.1417H15.6959Z" fill="white"/>
<path d="M9.78871 29.1804C10.3722 29.1804 10.7882 28.8056 10.7882 28.2284C10.7882 27.7173 10.4684 27.2763 9.81245 27.2763C9.15652 27.2763 8.83167 27.7173 8.83167 28.2521C8.83667 28.8381 9.22648 29.1804 9.78871 29.1804ZM9.8087 27.6811C10.0586 27.6811 10.2547 27.8473 10.2547 28.2159C10.2547 28.5644 10.0761 28.7831 9.80496 28.7831C9.53384 28.7831 9.37516 28.5395 9.37516 28.2246C9.37641 27.8785 9.54258 27.6811 9.80995 27.6811H9.8087Z" fill="black"/>
<path d="M9.78871 29.1804C10.3722 29.1804 10.7882 28.8056 10.7882 28.2284C10.7882 27.7173 10.4684 27.2763 9.81245 27.2763C9.15652 27.2763 8.83167 27.7173 8.83167 28.2521C8.83667 28.8381 9.22648 29.1804 9.78871 29.1804ZM9.8087 27.6811C10.0586 27.6811 10.2547 27.8473 10.2547 28.2159C10.2547 28.5644 10.0761 28.7831 9.80496 28.7831C9.53384 28.7831 9.37516 28.5395 9.37516 28.2246C9.37641 27.8785 9.54258 27.6811 9.80995 27.6811H9.8087Z" fill="white"/>
<path d="M6.34162 28.7456H5.99303V28.1097C5.99303 27.8598 6.09424 27.6761 6.34536 27.6761C6.55152 27.6761 6.65772 27.8011 6.65772 28.1134V29.1429H7.4236V28.7456H7.17997V28.1097C7.17997 27.8598 7.28117 27.6761 7.5323 27.6761C7.73845 27.6761 7.84465 27.8011 7.84465 28.1134V29.1429H8.60803V28.7456H8.3669V27.911C8.37292 27.8271 8.36095 27.7428 8.33179 27.6639C8.30262 27.585 8.25695 27.5132 8.19781 27.4534C8.13867 27.3935 8.06743 27.347 7.98885 27.3169C7.91028 27.2868 7.82619 27.2738 7.7422 27.2788C7.61417 27.2738 7.48779 27.3091 7.38088 27.3797C7.27396 27.4503 7.19189 27.5527 7.14623 27.6724C7.10326 27.5509 7.02181 27.4467 6.91425 27.3757C6.80669 27.3046 6.6789 27.2706 6.55027 27.2788C6.4379 27.2741 6.32646 27.3009 6.22847 27.3561C6.13047 27.4113 6.04981 27.4927 5.99553 27.5912V27.3163H5.22715V27.7136H5.46953V28.7469H5.22715V29.1442H6.34162V28.7456Z" fill="black"/>
<path d="M6.34162 28.7456H5.99303V28.1097C5.99303 27.8598 6.09424 27.6761 6.34536 27.6761C6.55152 27.6761 6.65772 27.8011 6.65772 28.1134V29.1429H7.4236V28.7456H7.17997V28.1097C7.17997 27.8598 7.28117 27.6761 7.5323 27.6761C7.73845 27.6761 7.84465 27.8011 7.84465 28.1134V29.1429H8.60803V28.7456H8.3669V27.911C8.37292 27.8271 8.36095 27.7428 8.33179 27.6639C8.30262 27.585 8.25695 27.5132 8.19781 27.4534C8.13867 27.3935 8.06743 27.347 7.98885 27.3169C7.91028 27.2868 7.82619 27.2738 7.7422 27.2788C7.61417 27.2738 7.48779 27.3091 7.38088 27.3797C7.27396 27.4503 7.19189 27.5527 7.14623 27.6724C7.10326 27.5509 7.02181 27.4467 6.91425 27.3757C6.80669 27.3046 6.6789 27.2706 6.55027 27.2788C6.4379 27.2741 6.32646 27.3009 6.22847 27.3561C6.13047 27.4113 6.04981 27.4927 5.99553 27.5912V27.3163H5.22715V27.7136H5.46953V28.7469H5.22715V29.1442H6.34162V28.7456Z" fill="white"/>
<path d="M11.5204 27.7123H12.0914L11.0868 28.8668L11.1393 29.1417H12.7361L12.8485 28.502L12.4362 28.462L12.3512 28.7456H11.759L12.7723 27.5912L12.7311 27.315H11.1268L11.0631 27.9547L11.4392 27.996L11.5204 27.7123Z" fill="black"/>
<path d="M11.5204 27.7123H12.0914L11.0868 28.8668L11.1393 29.1417H12.7361L12.8485 28.502L12.4362 28.462L12.3512 28.7456H11.759L12.7723 27.5912L12.7311 27.315H11.1268L11.0631 27.9547L11.4392 27.996L11.5204 27.7123Z" fill="white"/>
<path d="M13.7793 28.4857H13.2321V29.1417H13.7793V28.4857Z" fill="black"/>
<path d="M13.7793 28.4857H13.2321V29.1417H13.7793V28.4857Z" fill="white"/>
<path d="M15.4248 26.3542H14.91L14.1204 29.1417H14.6351L15.4248 26.3542Z" fill="black"/>
<path d="M15.4248 26.3542H14.91L14.1204 29.1417H14.6351L15.4248 26.3542Z" fill="white"/>
<path d="M13.7793 27.315H13.2321V27.971H13.7793V27.315Z" fill="black"/>
<path d="M13.7793 27.315H13.2321V27.971H13.7793V27.315Z" fill="white"/>
<path d="M17.0053 27.7036C17.0926 27.6626 17.1889 27.6446 17.2851 27.6511C17.5812 27.6511 17.585 27.8735 17.585 28.0597V28.1209C17.4855 28.1092 17.3853 28.1038 17.2851 28.1047C16.8678 28.1047 16.4343 28.2096 16.4343 28.6594C16.4343 29.0342 16.7341 29.1817 16.9978 29.1817C17.1198 29.1808 17.2391 29.1463 17.3428 29.082C17.4464 29.0176 17.5302 28.9258 17.585 28.8168C17.5864 28.8674 17.598 28.9171 17.6191 28.9631C17.6402 29.009 17.6705 29.0502 17.7079 29.0842C17.7454 29.1182 17.7894 29.1442 17.8371 29.1607C17.8849 29.1773 17.9356 29.184 17.986 29.1804C18.1009 29.1792 18.2136 29.1501 18.3146 29.0954V28.8206C18.2895 28.8284 18.2635 28.8326 18.2372 28.8331C18.1522 28.8331 18.1122 28.7968 18.1122 28.6919V27.8985C18.1122 27.4812 17.7799 27.2738 17.3876 27.2738C17.1168 27.2697 16.8486 27.3283 16.6042 27.445L16.533 27.8648L16.9503 27.9098L17.0053 27.7036ZM17.1877 28.8056C17.1598 28.8082 17.1317 28.8048 17.1054 28.7954C17.079 28.786 17.0551 28.7709 17.0352 28.7513C17.0153 28.7316 16.9999 28.7078 16.9902 28.6816C16.9805 28.6554 16.9767 28.6273 16.979 28.5994C16.979 28.4008 17.1414 28.3496 17.3276 28.3496C17.4159 28.3514 17.504 28.3594 17.5912 28.3733C17.5725 28.6806 17.3738 28.8056 17.1877 28.8056Z" fill="black"/>
<path d="M17.0053 27.7036C17.0926 27.6626 17.1889 27.6446 17.2851 27.6511C17.5812 27.6511 17.585 27.8735 17.585 28.0597V28.1209C17.4855 28.1092 17.3853 28.1038 17.2851 28.1047C16.8678 28.1047 16.4343 28.2096 16.4343 28.6594C16.4343 29.0342 16.7341 29.1817 16.9978 29.1817C17.1198 29.1808 17.2391 29.1463 17.3428 29.082C17.4464 29.0176 17.5302 28.9258 17.585 28.8168C17.5864 28.8674 17.598 28.9171 17.6191 28.9631C17.6402 29.009 17.6705 29.0502 17.7079 29.0842C17.7454 29.1182 17.7894 29.1442 17.8371 29.1607C17.8849 29.1773 17.9356 29.184 17.986 29.1804C18.1009 29.1792 18.2136 29.1501 18.3146 29.0954V28.8206C18.2895 28.8284 18.2635 28.8326 18.2372 28.8331C18.1522 28.8331 18.1122 28.7968 18.1122 28.6919V27.8985C18.1122 27.4812 17.7799 27.2738 17.3876 27.2738C17.1168 27.2697 16.8486 27.3283 16.6042 27.445L16.533 27.8648L16.9503 27.9098L17.0053 27.7036ZM17.1877 28.8056C17.1598 28.8082 17.1317 28.8048 17.1054 28.7954C17.079 28.786 17.0551 28.7709 17.0352 28.7513C17.0153 28.7316 16.9999 28.7078 16.9902 28.6816C16.9805 28.6554 16.9767 28.6273 16.979 28.5994C16.979 28.4008 17.1414 28.3496 17.3276 28.3496C17.4159 28.3514 17.504 28.3594 17.5912 28.3733C17.5725 28.6806 17.3738 28.8056 17.1877 28.8056Z" fill="white"/>
</g>
<defs>
<clipPath id="clip0">
<rect width="42.0799" height="10.44" fill="white" transform="translate(4.36007 19.56)"/>
</clipPath>
</defs>
</svg>
