<svg width="50" height="50" viewBox="0 0 50 50" fill="none" xmlns="http://www.w3.org/2000/svg">
<g clip-path="url(#clip0)">
<path d="M0 1.67426V3.88153C0.92299 3.88153 1.67403 4.63254 1.67403 5.55522C1.67403 6.47847 0.92299 7.22948 0 7.22948V9.43675C0.92299 9.43675 1.67403 10.1878 1.67403 11.1104C1.67403 12.0337 0.92299 12.7847 0 12.7847V14.992C0.92299 14.992 1.67403 15.743 1.67403 16.6668C1.67403 17.5906 0.92299 18.3416 0 18.3416V20.5489C0.92299 20.5489 1.67403 21.2993 1.67403 22.2226C1.67403 23.1458 0.92299 23.8969 0 23.8969V26.1041C0.92299 26.1041 1.67403 26.8546 1.67403 27.7778C1.67403 28.7011 0.92299 29.4521 0 29.4521V31.6593C0.92299 31.6593 1.67403 32.4098 1.67403 33.333C1.67403 34.2563 0.92299 35.0073 0 35.0073V37.2146C0.92299 37.2146 1.67403 37.965 1.67403 38.8882C1.67403 39.8115 0.92299 40.5625 0 40.5625V42.7698C0.92299 42.7698 1.67403 43.5202 1.67403 44.4435C1.67403 45.3667 0.92299 46.1177 0 46.1177V48.3261C0.440608 48.3261 0.872063 48.5044 1.18392 48.8162C1.49521 49.1275 1.67403 49.5589 1.67403 49.9998H3.88137C3.88137 49.0766 4.63241 48.3261 5.5554 48.3261C6.47839 48.3261 7.22942 49.0766 7.22942 49.9998H9.43676C9.43676 49.0766 10.1878 48.3261 11.1108 48.3261C12.0338 48.3261 12.7848 49.0766 12.7848 49.9998H14.9922C14.9922 49.0766 15.7432 48.3261 16.6662 48.3261C17.5892 48.3261 18.3402 49.0766 18.3402 49.9998H20.5476C20.5476 49.0766 21.2986 48.3261 22.2216 48.3261C23.1446 48.3261 23.8956 49.0766 23.8956 49.9998H26.103C26.103 49.0766 26.854 48.3261 27.777 48.3261C28.7 48.3261 29.451 49.0766 29.451 49.9998H31.6583C31.6583 49.0766 32.4094 48.3261 33.3324 48.3261C34.2554 48.3261 35.0064 49.0766 35.0064 49.9998H37.2137C37.2137 49.0766 37.9648 48.3261 38.8878 48.3261C39.8108 48.3261 40.5618 49.0766 40.5618 49.9998H42.7691C42.7691 49.0766 43.5202 48.3261 44.4432 48.3261C45.3662 48.3261 46.1172 49.0766 46.1172 49.9998H48.3257C48.3257 49.5589 48.5045 49.1275 48.8164 48.8162C49.1277 48.5044 49.5591 48.3261 50 48.3261V46.1189C49.0767 46.1189 48.3257 45.3679 48.3257 44.4446C48.3257 43.5214 49.0767 42.7709 50 42.7709V40.5636C49.0767 40.5636 48.3257 39.8126 48.3257 38.8894C48.3257 37.9661 49.0767 37.2157 50 37.2157V35.0084C49.0767 35.0084 48.3257 34.2574 48.3257 33.3342C48.3257 32.4109 49.0767 31.6605 50 31.6605V29.4532C49.0767 29.4532 48.3257 28.7022 48.3257 27.779C48.3257 26.8557 49.0767 26.1053 50 26.1053V23.898C49.0767 23.898 48.3257 23.147 48.3257 22.2237C48.3257 21.3005 49.0767 20.55 50 20.55V18.3428C49.0767 18.3428 48.3257 17.5918 48.3257 16.6679C48.3257 15.7441 49.0767 14.9931 50 14.9931V12.7858C49.0767 12.7858 48.3257 12.0348 48.3257 11.1116C48.3257 10.1889 49.0767 9.43789 50 9.43789V7.23062C49.0767 7.23062 48.3257 6.47961 48.3257 5.55636C48.3257 4.63369 49.0767 3.88267 50 3.88267V1.67426C49.5591 1.67426 49.1277 1.49545 48.8164 1.18417C48.5045 0.872321 48.3257 0.440881 48.3257 0H46.1183C46.1183 0.923247 45.3673 1.67426 44.4443 1.67426C43.5213 1.67426 42.7703 0.923247 42.7703 0H40.563C40.563 0.923247 39.8119 1.67426 38.8889 1.67426C37.9659 1.67426 37.2149 0.923247 37.2149 0H35.0076C35.0076 0.923247 34.2565 1.67426 33.3335 1.67426C32.4105 1.67426 31.6595 0.923247 31.6595 0H29.4522C29.4522 0.923247 28.7011 1.67426 27.7781 1.67426C26.8551 1.67426 26.1041 0.923247 26.1041 0H23.8968C23.8968 0.923247 23.1457 1.67426 22.2227 1.67426C21.2997 1.67426 20.5487 0.923247 20.5487 0H18.3414C18.3414 0.923247 17.5903 1.67426 16.6673 1.67426C15.7443 1.67426 14.9933 0.923247 14.9933 0H12.786C12.786 0.923247 12.0349 1.67426 11.1119 1.67426C10.1889 1.67426 9.43791 0.923247 9.43791 0H7.23057C7.23057 0.923247 6.47953 1.67426 5.55654 1.67426C4.63355 1.67426 3.88251 0.923247 3.88251 0H1.67403C1.67403 0.440881 1.49521 0.872321 1.18392 1.18417C0.872063 1.49545 0.440608 1.67426 0 1.67426Z" fill="url(#paint0_linear)"/>
<path d="M42.5938 20.0065H17.6435L18.9456 13.9145H34.1524L35.5474 7.35765H13.6904L6.80771 39.8169H13.4114L16.4336 25.6332H32.2729L18.5096 39.2587L20.9278 43.5368C22.0436 42.7929 23.8573 42.6997 25.113 42.6997C27.3455 42.6997 29.5311 43.4441 31.8091 43.4441C33.898 43.4441 36.0364 43.3045 39.5247 41.6302L40.7435 35.9105C38.3714 36.8867 34.8616 37.8171 31.8091 37.8171C30.5543 37.8171 29.3915 37.5381 28.1824 37.3522L41.524 24.3781L42.5938 20.0065Z" fill="white"/>
</g>
<defs>
<linearGradient id="paint0_linear" x1="24.9989" y1="6.07159" x2="24.9989" y2="44.6969" gradientUnits="userSpaceOnUse">
<stop stop-color="#BF0000"/>
<stop offset="1" stop-color="#8F0000"/>
</linearGradient>
<clipPath id="clip0">
<rect width="50" height="49.9998" fill="white"/>
</clipPath>
</defs>
</svg>
