<svg width="50" height="50" viewBox="0 0 50 50" fill="none" xmlns="http://www.w3.org/2000/svg">
<g clip-path="url(#clip0)">
<path d="M45.5372 16.3645C44.574 13.8927 42.6202 11.224 41.0902 10.3803C42.1815 12.6344 42.9388 15.0551 43.3352 17.5564L43.3392 17.5961C40.8329 10.9318 36.5826 8.24473 33.1114 2.39359C32.9358 2.09774 32.7602 1.80128 32.5892 1.48835C32.4914 1.30962 32.413 1.14858 32.345 1.00035C32.201 0.703008 32.09 0.388766 32.0144 0.063998C32.0145 0.0490116 32.0094 0.0345098 32.0001 0.023259C31.9908 0.0120082 31.978 0.00479588 31.964 0.00299785C31.9504 -0.000999285 31.9359 -0.000999285 31.9223 0.00299785C31.9194 0.00299785 31.9148 0.00848787 31.9114 0.00970787C31.908 0.0109279 31.9005 0.0164179 31.8954 0.0188579L31.904 0.00299785C26.3359 3.48001 24.4467 9.91675 24.2729 13.1363C22.0493 13.2993 19.9233 14.1732 18.1723 15.6441C17.9897 15.479 17.7987 15.3247 17.6004 15.1817C17.0953 13.2961 17.0737 11.3006 17.538 9.40312C15.4932 10.4596 13.6763 11.9572 12.2022 13.8012H12.1919C11.3134 12.6136 11.3752 8.69735 11.4255 7.87934C11.1656 7.99074 10.9175 8.13122 10.6854 8.29841C9.90981 8.88875 9.18479 9.55115 8.51878 10.2779C7.75985 11.0985 7.06669 11.9855 6.44657 12.9295V12.9332V12.9289C5.02138 15.0838 4.01053 17.5184 3.47237 20.0922L3.44263 20.2483C3.40087 20.4564 3.25045 21.4982 3.22471 21.7246C3.22471 21.7422 3.22128 21.7587 3.21956 21.7764C3.02552 22.852 2.90528 23.9413 2.8598 25.0356V25.1576C2.86466 31.0773 4.95147 36.7796 8.70782 41.1376C12.4642 45.4957 17.6167 48.1924 23.1472 48.6947C28.6776 49.1971 34.1836 47.4685 38.5768 43.8507C42.9701 40.2329 45.9311 34.9891 46.8745 29.1556C46.9117 28.8506 46.942 28.5486 46.9751 28.2406C47.4317 24.2159 46.9374 20.1334 45.5372 16.3645ZM19.9877 34.8707C20.0913 34.9238 20.1885 34.9811 20.2949 35.0317L20.3103 35.0421C20.2028 34.9872 20.0953 34.9301 19.9877 34.8707ZM43.3409 17.6015V17.579L43.3449 17.604L43.3409 17.6015Z" fill="url(#paint0_linear)"/>
<path d="M45.5372 16.3645C44.574 13.8927 42.6202 11.224 41.0902 10.3803C42.1815 12.6344 42.9388 15.0551 43.3352 17.5564V17.579L43.3392 17.604C45.0478 22.8186 44.8006 28.5356 42.6494 33.5604C40.1087 39.3743 33.959 45.3334 24.3329 45.0437C13.9318 44.7295 4.77186 36.4982 3.05941 25.717C2.74769 24.0169 3.05941 23.155 3.21613 21.7733C3.00235 22.8466 2.88305 23.9387 2.8598 25.0356V25.1576C2.86466 31.0773 4.95147 36.7796 8.70782 41.1376C12.4642 45.4957 17.6167 48.1924 23.1472 48.6947C28.6776 49.197 34.1836 47.4685 38.5768 43.8507C42.9701 40.2329 45.9311 34.9891 46.8745 29.1556C46.9117 28.8506 46.942 28.5486 46.9751 28.2406C47.4317 24.2159 46.9374 20.1334 45.5372 16.3645Z" fill="url(#paint1_radial)"/>
<path d="M45.5372 16.3645C44.574 13.8927 42.6202 11.224 41.0902 10.3803C42.1815 12.6344 42.9388 15.0551 43.3352 17.5564V17.579L43.3392 17.604C45.0478 22.8186 44.8006 28.5356 42.6494 33.5604C40.1087 39.3743 33.959 45.3334 24.3329 45.0437C13.9318 44.7295 4.77186 36.4982 3.05941 25.717C2.74769 24.0169 3.05941 23.155 3.21613 21.7733C3.00235 22.8466 2.88305 23.9387 2.8598 25.0356V25.1576C2.86466 31.0773 4.95147 36.7796 8.70782 41.1376C12.4642 45.4957 17.6167 48.1924 23.1472 48.6947C28.6776 49.197 34.1836 47.4685 38.5768 43.8507C42.9701 40.2329 45.9311 34.9891 46.8745 29.1556C46.9117 28.8506 46.942 28.5486 46.9751 28.2406C47.4317 24.2159 46.9374 20.1334 45.5372 16.3645Z" fill="url(#paint2_radial)"/>
<path d="M34.7649 19.1436C34.813 19.1796 34.8576 19.2156 34.9028 19.2516C34.3459 18.1985 33.6528 17.2344 32.8437 16.3876C25.9539 9.03832 31.038 0.452547 31.8954 0.0163955L31.904 0.00297546C26.3359 3.47998 24.4468 9.91672 24.2729 13.1363C24.5314 13.1174 24.7876 13.0942 25.0519 13.0942C27.0275 13.0981 28.967 13.6599 30.6731 14.7224C32.3791 15.785 33.7909 17.3104 34.7649 19.1436Z" fill="url(#paint3_radial)"/>
<path d="M25.0662 20.6113C25.0296 21.1993 23.0815 23.2276 22.4003 23.2276C16.0967 23.2276 15.0735 27.2945 15.0735 27.2945C15.3526 30.719 17.5901 33.5397 20.2949 35.0317C20.4184 35.1 20.5437 35.1617 20.669 35.222C20.8859 35.3245 21.1029 35.4193 21.3198 35.5063C22.2481 35.8567 23.2204 36.0568 24.2042 36.0998C35.2528 36.6525 37.3931 22.0088 29.42 17.7595C31.3009 17.4985 33.2057 17.9918 34.7649 19.1436C33.7909 17.3104 32.3791 15.785 30.6731 14.7224C28.967 13.6599 27.0275 13.0981 25.0519 13.0942C24.7888 13.0942 24.5314 13.1174 24.2729 13.1363C22.0493 13.2993 19.9233 14.1732 18.1723 15.644C18.5104 15.949 18.8919 16.3565 19.6955 17.2014C21.1997 18.7819 25.0576 20.4191 25.0662 20.6113Z" fill="url(#paint4_radial)"/>
<path d="M25.0662 20.6113C25.0296 21.1993 23.0815 23.2276 22.4003 23.2276C16.0967 23.2276 15.0735 27.2945 15.0735 27.2945C15.3526 30.719 17.5901 33.5397 20.2949 35.0317C20.4184 35.1 20.5437 35.1617 20.669 35.222C20.8859 35.3245 21.1029 35.4193 21.3198 35.5063C22.2481 35.8567 23.2204 36.0568 24.2042 36.0998C35.2528 36.6525 37.3931 22.0088 29.42 17.7595C31.3009 17.4985 33.2057 17.9918 34.7649 19.1436C33.7909 17.3104 32.3791 15.785 30.6731 14.7224C28.967 13.6599 27.0275 13.0981 25.0519 13.0942C24.7888 13.0942 24.5314 13.1174 24.2729 13.1363C22.0493 13.2993 19.9233 14.1732 18.1723 15.644C18.5104 15.949 18.8919 16.3565 19.6955 17.2014C21.1997 18.7819 25.0576 20.4191 25.0662 20.6113Z" fill="url(#paint5_radial)"/>
<path d="M17.1388 14.8578C17.3184 14.9798 17.4665 15.0859 17.5964 15.1817C17.0913 13.2961 17.0697 11.3006 17.534 9.40314C15.4892 10.4596 13.6723 11.9572 12.1982 13.8012C12.3063 13.7982 15.5219 13.7366 17.1388 14.8578Z" fill="url(#paint6_radial)"/>
<path d="M3.06228 25.717C4.77301 36.4982 13.9347 44.7295 24.3358 45.0437C33.9619 45.334 40.1116 39.3743 42.6523 33.5604C44.8035 28.5356 45.0507 22.8186 43.3421 17.604V17.5814C43.3421 17.5637 43.3386 17.5534 43.3421 17.5588L43.3461 17.5985C44.1325 23.0745 41.5209 28.3797 37.4383 31.9671L37.4257 31.9976C29.4709 38.9071 21.8581 36.1663 20.3172 35.0476C20.2097 34.9927 20.1021 34.9356 19.9946 34.8762C15.3566 32.5118 13.4405 28.0051 13.8512 24.1402C12.7502 24.1575 11.6682 23.8339 10.7361 23.2087C9.8041 22.5834 9.06209 21.6833 8.60001 20.6174C9.81749 19.8219 11.2057 19.3722 12.6323 19.3111C14.059 19.25 15.4765 19.5796 16.7499 20.2685C19.3751 21.5395 22.3624 21.6647 25.0731 20.6174C25.0645 20.4252 21.2066 18.7874 19.7023 17.2075C18.8987 16.3626 18.5172 15.9558 18.1792 15.6501C17.9965 15.4851 17.8056 15.3308 17.6072 15.1878C17.4757 15.092 17.3276 14.9883 17.1497 14.8639C15.5327 13.7427 12.3172 13.8043 12.2108 13.8073H12.2005C11.322 12.6197 11.3837 8.70345 11.4341 7.88544C11.1742 7.99684 10.9261 8.13731 10.694 8.30451C9.9184 8.89484 9.19338 9.55725 8.52737 10.284C7.76572 11.1023 7.06968 11.9873 6.44657 12.9295V12.9332V12.9289C5.02138 15.0838 4.01053 17.5184 3.47238 20.0922C3.46151 20.1404 2.67392 23.8126 3.06228 25.717Z" fill="url(#paint7_radial)"/>
<path d="M32.8449 16.3876C33.6541 17.2354 34.3473 18.2005 34.9039 19.2547C35.0257 19.3529 35.1396 19.4505 35.2362 19.545C40.262 24.486 37.6287 31.4705 37.4325 31.9677C41.5152 28.3803 44.1245 23.0751 43.3403 17.5991C40.8329 10.9318 36.5826 8.24473 33.1114 2.39359C32.9358 2.09774 32.7602 1.80128 32.5892 1.48835C32.4914 1.30962 32.413 1.14858 32.345 1.00035C32.201 0.703008 32.09 0.388766 32.0144 0.063998C32.0145 0.0490116 32.0094 0.0345098 32.0001 0.023259C31.9908 0.0120082 31.978 0.00479588 31.964 0.00299785C31.9504 -0.000999285 31.9359 -0.000999285 31.9223 0.00299785C31.9194 0.00299785 31.9148 0.00848787 31.9114 0.00970787C31.908 0.0109279 31.9005 0.0164179 31.8954 0.0188579C31.038 0.452569 25.9539 9.03834 32.8449 16.3876Z" fill="url(#paint8_radial)"/>
<path d="M35.2328 19.542C35.1361 19.4474 35.0223 19.3498 34.9005 19.2516C34.8553 19.2156 34.8107 19.1796 34.7626 19.1437C33.2034 17.9918 31.2986 17.4985 29.4177 17.7596C37.3908 22.0113 35.2517 36.6525 24.202 36.0999C23.2181 36.0568 22.2458 35.8567 21.3176 35.5063C21.1006 35.4197 20.8836 35.325 20.6667 35.2221C20.5414 35.1611 20.4161 35.1001 20.2926 35.0318L20.308 35.0421C21.8489 36.1639 29.4594 38.9047 37.4165 31.9921L37.4291 31.9616C37.6276 31.4675 40.2609 24.4812 35.2328 19.542Z" fill="url(#paint9_radial)"/>
<path d="M15.0735 27.2945C15.0735 27.2945 16.0967 23.2276 22.4003 23.2276C23.0815 23.2276 25.0313 21.1993 25.0662 20.6113C22.3555 21.6586 19.3682 21.5334 16.743 20.2624C15.4697 19.5735 14.0521 19.2439 12.6255 19.305C11.1988 19.3661 9.81062 19.8158 8.59314 20.6113C9.05522 21.6772 9.79723 22.5773 10.7293 23.2026C11.6613 23.8278 12.7433 24.1514 13.8443 24.1341C13.4336 27.9996 15.3497 32.5063 19.9877 34.8701C20.0913 34.9232 20.1885 34.9805 20.2949 35.0311C17.5878 33.5397 15.3526 30.719 15.0735 27.2945Z" fill="url(#paint10_radial)"/>
<path d="M45.5372 16.3645C44.574 13.8927 42.6202 11.224 41.0902 10.3803C42.1815 12.6344 42.9388 15.0551 43.3352 17.5564L43.3392 17.5961C40.8329 10.9318 36.5826 8.24473 33.1114 2.39359C32.9358 2.09774 32.7602 1.80128 32.5892 1.48835C32.4914 1.30962 32.413 1.14858 32.345 1.00035C32.201 0.703008 32.09 0.388766 32.0144 0.063998C32.0145 0.0490116 32.0094 0.0345098 32.0001 0.023259C31.9908 0.0120082 31.978 0.00479588 31.964 0.00299785C31.9504 -0.000999285 31.9359 -0.000999285 31.9223 0.00299785C31.9194 0.00299785 31.9148 0.00848787 31.9114 0.00970787C31.908 0.0109279 31.9005 0.0164179 31.8954 0.0188579L31.904 0.00299785C26.3359 3.48001 24.4467 9.91675 24.2729 13.1363C24.5314 13.1174 24.7876 13.0942 25.0519 13.0942C27.0275 13.0981 28.967 13.6599 30.6731 14.7224C32.3791 15.785 33.7909 17.3104 34.7649 19.1436C33.2057 17.9918 31.3009 17.4985 29.4199 17.7595C37.3931 22.0113 35.2539 36.6525 24.2042 36.0999C23.2204 36.0568 22.2481 35.8567 21.3198 35.5063C21.1029 35.4197 20.8859 35.3249 20.6689 35.2221C20.5437 35.1611 20.4184 35.1001 20.2949 35.0317L20.3103 35.0421C20.2028 34.9872 20.0953 34.9301 19.9877 34.8707C20.0913 34.9238 20.1885 34.9811 20.2949 35.0317C17.5878 33.5397 15.3526 30.719 15.0735 27.2945C15.0735 27.2945 16.0967 23.2276 22.4003 23.2276C23.0815 23.2276 25.0313 21.1993 25.0662 20.6113C25.0576 20.4191 21.1997 18.7813 19.6955 17.2014C18.8919 16.3565 18.5104 15.9497 18.1723 15.6441C17.9897 15.479 17.7987 15.3247 17.6004 15.1817C17.0953 13.2961 17.0737 11.3006 17.538 9.40312C15.4932 10.4596 13.6763 11.9572 12.2022 13.8012H12.1919C11.3134 12.6136 11.3752 8.69735 11.4255 7.87934C11.1656 7.99074 10.9175 8.13122 10.6854 8.29841C9.90981 8.88875 9.18479 9.55115 8.51878 10.2779C7.75985 11.0985 7.06669 11.9855 6.44657 12.9295V12.9332V12.9289C5.02138 15.0838 4.01053 17.5184 3.47237 20.0922L3.44263 20.2483C3.40087 20.4564 3.21384 21.5129 3.18696 21.7398C3.18696 21.7569 3.18696 21.7221 3.18696 21.7398C3.01589 22.8304 2.90664 23.931 2.8598 25.0356V25.1576C2.86466 31.0773 4.95147 36.7796 8.70782 41.1376C12.4642 45.4957 17.6167 48.1924 23.1472 48.6947C28.6776 49.1971 34.1836 47.4685 38.5768 43.8507C42.9701 40.2329 45.9311 34.9891 46.8745 29.1556C46.9117 28.8506 46.942 28.5486 46.9751 28.2406C47.4317 24.2159 46.9374 20.1334 45.5372 16.3645ZM43.338 17.579L43.342 17.604L43.338 17.579Z" fill="url(#paint11_linear)"/>
</g>
<defs>
<linearGradient id="paint0_linear" x1="42.6031" y1="7.55726" x2="3.52736" y2="42.9069" gradientUnits="userSpaceOnUse">
<stop offset="0.048" stop-color="#FFF44F"/>
<stop offset="0.111" stop-color="#FFE847"/>
<stop offset="0.225" stop-color="#FFC830"/>
<stop offset="0.368" stop-color="#FF980E"/>
<stop offset="0.401" stop-color="#FF8B16"/>
<stop offset="0.462" stop-color="#FF672A"/>
<stop offset="0.534" stop-color="#FF3647"/>
<stop offset="0.705" stop-color="#E31587"/>
</linearGradient>
<radialGradient id="paint1_radial" cx="0" cy="0" r="1" gradientUnits="userSpaceOnUse" gradientTransform="translate(40.9026 5.41364) scale(46.2127 49.2863)">
<stop offset="0.129" stop-color="#FFBD4F"/>
<stop offset="0.186" stop-color="#FFAC31"/>
<stop offset="0.247" stop-color="#FF9D17"/>
<stop offset="0.283" stop-color="#FF980E"/>
<stop offset="0.403" stop-color="#FF563B"/>
<stop offset="0.467" stop-color="#FF3750"/>
<stop offset="0.71" stop-color="#F5156C"/>
<stop offset="0.782" stop-color="#EB0878"/>
<stop offset="0.86" stop-color="#E50080"/>
</radialGradient>
<radialGradient id="paint2_radial" cx="0" cy="0" r="1" gradientUnits="userSpaceOnUse" gradientTransform="translate(24.0161 25.5633) scale(46.2127 49.2863)">
<stop offset="0.3" stop-color="#960E18"/>
<stop offset="0.351" stop-color="#B11927" stop-opacity="0.74"/>
<stop offset="0.435" stop-color="#DB293D" stop-opacity="0.343"/>
<stop offset="0.497" stop-color="#F5334B" stop-opacity="0.094"/>
<stop offset="0.53" stop-color="#FF3750" stop-opacity="0"/>
</radialGradient>
<radialGradient id="paint3_radial" cx="0" cy="0" r="1" gradientUnits="userSpaceOnUse" gradientTransform="translate(29.5874 -5.77131) scale(33.4792 35.7058)">
<stop offset="0.132" stop-color="#FFF44F"/>
<stop offset="0.252" stop-color="#FFDC3E"/>
<stop offset="0.506" stop-color="#FF9D12"/>
<stop offset="0.526" stop-color="#FF980E"/>
</radialGradient>
<radialGradient id="paint4_radial" cx="0" cy="0" r="1" gradientUnits="userSpaceOnUse" gradientTransform="translate(18.9045 38.4371) scale(22.0039 23.4674)">
<stop offset="0.353" stop-color="#3A8EE6"/>
<stop offset="0.472" stop-color="#5C79F0"/>
<stop offset="0.669" stop-color="#9059FF"/>
<stop offset="1" stop-color="#C139E6"/>
</radialGradient>
<radialGradient id="paint5_radial" cx="0" cy="0" r="1" gradientUnits="userSpaceOnUse" gradientTransform="translate(26.5414 21.5241) rotate(-14.4587) scale(11.7105 14.5118)">
<stop offset="0.206" stop-color="#9059FF" stop-opacity="0"/>
<stop offset="0.278" stop-color="#8C4FF3" stop-opacity="0.064"/>
<stop offset="0.747" stop-color="#7716A8" stop-opacity="0.45"/>
<stop offset="0.975" stop-color="#6E008B" stop-opacity="0.6"/>
</radialGradient>
<radialGradient id="paint6_radial" cx="0" cy="0" r="1" gradientUnits="userSpaceOnUse" gradientTransform="translate(23.4327 3.39717) scale(15.8296 16.8824)">
<stop stop-color="#FFE226"/>
<stop offset="0.121" stop-color="#FFDB27"/>
<stop offset="0.295" stop-color="#FFC82A"/>
<stop offset="0.502" stop-color="#FFA930"/>
<stop offset="0.732" stop-color="#FF7E37"/>
<stop offset="0.792" stop-color="#FF7139"/>
</radialGradient>
<radialGradient id="paint7_radial" cx="0" cy="0" r="1" gradientUnits="userSpaceOnUse" gradientTransform="translate(35.875 -7.31118) scale(67.5377 72.0296)">
<stop offset="0.113" stop-color="#FFF44F"/>
<stop offset="0.456" stop-color="#FF980E"/>
<stop offset="0.622" stop-color="#FF5634"/>
<stop offset="0.716" stop-color="#FF3647"/>
<stop offset="0.904" stop-color="#E31587"/>
</radialGradient>
<radialGradient id="paint8_radial" cx="0" cy="0" r="1" gradientUnits="userSpaceOnUse" gradientTransform="translate(30.1829 -3.30595) rotate(84.3492) scale(52.7571 32.508)">
<stop stop-color="#FFF44F"/>
<stop offset="0.06" stop-color="#FFE847"/>
<stop offset="0.168" stop-color="#FFC830"/>
<stop offset="0.304" stop-color="#FF980E"/>
<stop offset="0.356" stop-color="#FF8B16"/>
<stop offset="0.455" stop-color="#FF672A"/>
<stop offset="0.57" stop-color="#FF3647"/>
<stop offset="0.737" stop-color="#E31587"/>
</radialGradient>
<radialGradient id="paint9_radial" cx="0" cy="0" r="1" gradientUnits="userSpaceOnUse" gradientTransform="translate(23.0599 9.65031) scale(42.165 44.9693)">
<stop offset="0.137" stop-color="#FFF44F"/>
<stop offset="0.48" stop-color="#FF980E"/>
<stop offset="0.592" stop-color="#FF5634"/>
<stop offset="0.655" stop-color="#FF3647"/>
<stop offset="0.904" stop-color="#E31587"/>
</radialGradient>
<radialGradient id="paint10_radial" cx="0" cy="0" r="1" gradientUnits="userSpaceOnUse" gradientTransform="translate(34.1902 12.2821) scale(46.1492 49.2186)">
<stop offset="0.094" stop-color="#FFF44F"/>
<stop offset="0.231" stop-color="#FFE141"/>
<stop offset="0.509" stop-color="#FFAF1E"/>
<stop offset="0.626" stop-color="#FF980E"/>
</radialGradient>
<linearGradient id="paint11_linear" x1="42.1609" y1="7.35474" x2="8.83494" y2="38.6019" gradientUnits="userSpaceOnUse">
<stop offset="0.167" stop-color="#FFF44F" stop-opacity="0.8"/>
<stop offset="0.266" stop-color="#FFF44F" stop-opacity="0.634"/>
<stop offset="0.489" stop-color="#FFF44F" stop-opacity="0.217"/>
<stop offset="0.6" stop-color="#FFF44F" stop-opacity="0"/>
</linearGradient>
<clipPath id="clip0">
<rect width="50" height="50" fill="white"/>
</clipPath>
</defs>
</svg>
