<svg width="50" height="50" viewBox="0 0 50 50" fill="none" xmlns="http://www.w3.org/2000/svg">
<g clip-path="url(#clip0)">
<path d="M49 35.0876V15.6748C48.9935 14.616 48.7018 13.5771 48.1538 12.6608C47.6058 11.7446 46.8204 10.9827 45.8753 10.4505L40.7205 7.56849L45.8753 10.4505C46.8218 10.9812 47.6083 11.7427 48.1565 12.6593C48.7047 13.5759 48.9956 14.6155 49 15.6748V35.0876ZM48.1641 38.0082C47.6222 38.9283 46.8352 39.6906 45.8852 40.2155L37.8048 44.7362C37.7849 44.7458 37.755 44.7555 37.7351 44.7651C37.6296 44.8212 37.5198 44.8695 37.4067 44.9097C37.3769 44.9193 37.3371 44.9386 37.2973 44.9482C37.1549 44.994 37.0082 45.0263 36.8594 45.0446C36.8235 45.0526 36.7867 45.0558 36.7499 45.0543C36.6708 45.0655 36.5911 45.0719 36.5111 45.0735C36.4713 45.0735 36.4315 45.0639 36.3917 45.0639C36.3519 45.0639 36.3121 45.0543 36.2723 45.0543C36.1309 45.0459 35.9908 45.0233 35.8543 44.9868C35.8268 44.985 35.7999 44.9784 35.7747 44.9675C35.655 44.9359 35.5384 44.8939 35.4264 44.8422C35.3966 44.8326 35.3667 44.8133 35.3369 44.8036C35.2085 44.739 35.0854 44.6649 34.9687 44.582C34.9388 44.5627 34.9189 44.5434 34.8891 44.5241C34.7857 44.4451 34.6892 44.358 34.6005 44.2639C34.5806 44.2446 34.5607 44.235 34.5507 44.2157C34.4722 44.1267 34.3991 44.0333 34.3318 43.9361L30.0428 37.6227C28.5849 38.1348 27.0458 38.3958 25.495 38.3938C18.0614 38.3938 12.021 32.5333 12.021 25.333C12.021 18.1327 18.0714 12.2723 25.505 12.2723C32.9386 12.2723 38.989 18.1327 38.989 25.333C38.9891 27.1649 38.5903 28.9763 37.8187 30.6488C37.047 32.3213 35.9199 33.8174 34.5109 35.0394L37.3371 39.1938L42.9297 36.0611C43.0597 35.9852 43.1799 35.8946 43.2879 35.7913C43.1787 35.9 43.0549 35.994 42.9198 36.0708L37.3271 39.2034L38.2028 40.5625C38.701 41.3417 39.493 41.9022 40.4107 42.1254C41.3284 42.3485 42.2997 42.2166 43.1188 41.7578L45.8852 40.2155C46.8309 39.6852 47.6165 38.9241 48.1641 38.0082ZM24.7885 5.25515C24.7301 5.28027 24.6736 5.30926 24.6193 5.3419L11.0059 12.9566L8.08025 14.5953C7.81061 14.7475 7.58693 14.9656 7.43152 15.2278C7.2761 15.4899 7.19441 15.787 7.19458 16.0893V34.5768C7.19441 34.8791 7.2761 35.1761 7.43152 35.4383C7.58693 35.7004 7.81061 35.9185 8.08025 36.0708L24.6094 45.3145C25.1036 45.5914 25.4897 46.0186 25.7076 46.5298C25.9255 47.041 25.9631 47.6076 25.8145 48.1416C25.6659 48.6756 25.3394 49.1471 24.8858 49.483C24.4321 49.8189 23.8767 50.0003 23.3057 49.999C22.8512 50.0001 22.4046 49.8836 22.0121 49.6617L5.11476 40.2155C4.16943 39.6844 3.38437 38.9225 2.83784 38.0059C2.29132 37.0892 2.00244 36.0498 2 34.9912V15.6748C2.00124 14.6161 2.28961 13.5762 2.83625 12.6593C3.3829 11.7424 4.16862 10.9808 5.11476 10.4505L5.48296 10.2481L22.022 1.00438L22.3902 0.801963C23.3367 0.276126 24.4089 -0.000549316 25.5 -0.000549316C26.5911 -0.000549316 27.6633 0.276126 28.6098 0.801963L28.978 1.00438L34.2323 3.93461C34.0034 3.79967 33.7745 3.67436 33.5456 3.5587C32.7362 3.10378 31.8198 2.85778 30.8841 2.84428C29.9484 2.83078 29.0248 3.05022 28.2018 3.48158L24.7885 5.25515ZM17.1956 25.333C17.1956 26.923 17.6824 28.4772 18.5943 29.7992C19.5063 31.1212 20.8025 32.1515 22.319 32.76C23.8355 33.3684 25.5042 33.5276 27.1142 33.2174C28.7241 32.9072 30.2029 32.1416 31.3636 31.0174C32.5243 29.8931 33.3147 28.4607 33.6349 26.9013C33.9552 25.3419 33.7908 23.7256 33.1627 22.2567C32.5345 20.7878 31.4707 19.5323 30.1059 18.649C28.7411 17.7656 27.1365 17.2942 25.495 17.2942C23.2945 17.2962 21.1848 18.1438 19.6288 19.6509C18.0728 21.1581 17.1977 23.2016 17.1956 25.333Z" fill="url(#paint0_linear)"/>
<path d="M42.7008 41.9987L37.8048 44.7362C37.7849 44.7458 37.755 44.7555 37.7351 44.7651C37.6296 44.8212 37.5198 44.8695 37.4068 44.9097C37.3769 44.9193 37.3371 44.9386 37.2973 44.9482C37.1549 44.994 37.0083 45.0263 36.8594 45.0446C36.8236 45.0526 36.7867 45.0558 36.75 45.0543C36.6708 45.0655 36.5911 45.0719 36.5111 45.0735C36.4713 45.0735 36.4315 45.0639 36.3917 45.0639C36.3519 45.0639 36.3121 45.0543 36.2723 45.0543C36.1309 45.0459 35.9909 45.0233 35.8543 44.9868C35.8268 44.985 35.7999 44.9784 35.7747 44.9675C35.655 44.9359 35.5385 44.8939 35.4264 44.8422C35.3966 44.8326 35.3667 44.8133 35.3369 44.8036C35.2085 44.739 35.0854 44.6649 34.9687 44.582C34.9388 44.5627 34.9189 44.5434 34.8891 44.5241C34.7858 44.4451 34.6892 44.358 34.6005 44.2639C34.5806 44.2446 34.5607 44.235 34.5507 44.2157C34.4723 44.1267 34.3992 44.0333 34.3318 43.9361L30.0428 37.6227C28.585 38.1348 27.0458 38.3958 25.495 38.3938C18.0614 38.3938 12.021 32.5333 12.021 25.333C12.021 18.1327 18.0714 12.2723 25.505 12.2723C32.9386 12.2723 38.989 18.1327 38.989 25.333C38.9891 27.1649 38.5903 28.9763 37.8187 30.6488C37.047 32.3213 35.9199 33.8174 34.5109 35.0394L37.3371 39.1938L42.9297 36.0611C43.0597 35.9852 43.18 35.8946 43.288 35.7913C43.1787 35.9 43.0549 35.994 42.9198 36.0708L37.3271 39.2034L38.2029 40.5625C39.1383 42.0276 41.0788 42.5963 42.7008 41.9987ZM24.7885 5.25515C24.7301 5.28027 24.6736 5.30926 24.6193 5.3419L11.0059 12.9566L8.08025 14.5953C7.81062 14.7475 7.58693 14.9656 7.43152 15.2278C7.27611 15.4899 7.19441 15.787 7.19458 16.0893V34.5768C7.19441 34.8791 7.27611 35.1761 7.43152 35.4383C7.58693 35.7004 7.81062 35.9185 8.08025 36.0708L24.6094 45.3145C25.1036 45.5914 25.4897 46.0186 25.7076 46.5298C25.9255 47.041 25.9631 47.6076 25.8145 48.1416C25.6659 48.6756 25.3394 49.1471 24.8858 49.483C24.4322 49.8189 23.8767 50.0003 23.3057 49.999C22.8512 50.0001 22.4046 49.8836 22.0121 49.6617L5.11476 40.2155C4.16943 39.6844 3.38437 38.9225 2.83784 38.0059C2.29132 37.0892 2.00244 36.0498 2 34.9912V15.6748C2.00124 14.6161 2.28961 13.5762 2.83626 12.6593C3.3829 11.7424 4.16862 10.9808 5.11476 10.4505L5.48296 10.2481L22.022 1.00438L22.3902 0.801963C23.3367 0.276126 24.4089 -0.000549316 25.5 -0.000549316C26.5912 -0.000549316 27.6633 0.276126 28.6098 0.801963L28.978 1.00438L32.9884 3.25025C32.2214 2.94811 31.3955 2.81225 30.5686 2.85221C29.7417 2.89218 28.9339 3.107 28.2018 3.48158L24.7885 5.25515ZM17.1956 25.333C17.1956 26.923 17.6824 28.4772 18.5943 29.7992C19.5063 31.1212 20.8025 32.1515 22.319 32.76C23.8355 33.3684 25.5042 33.5276 27.1142 33.2174C28.7241 32.9072 30.2029 32.1416 31.3636 31.0174C32.5243 29.8931 33.3147 28.4607 33.635 26.9013C33.9552 25.3419 33.7908 23.7256 33.1627 22.2567C32.5345 20.7878 31.4708 19.5323 30.1059 18.649C28.7411 17.7656 27.1365 17.2942 25.495 17.2942C23.2945 17.2962 21.1848 18.1438 19.6288 19.6509C18.0728 21.1581 17.1978 23.2016 17.1956 25.333Z" fill="url(#paint1_linear)"/>
<path fill-rule="evenodd" clip-rule="evenodd" d="M45.8753 10.4505L40.7205 7.56848C40.7205 7.56848 36.4514 5.17803 33.5456 3.55869C32.7362 3.10377 31.8198 2.85778 30.8841 2.84428C29.9484 2.83077 29.0248 3.05022 28.2018 3.48158L24.6094 5.35153C24.8793 5.20281 25.1845 5.12461 25.495 5.12461C25.8056 5.12461 26.1108 5.20281 26.3807 5.35153L42.9198 14.5953C43.1894 14.7475 43.4131 14.9656 43.5685 15.2278C43.7239 15.4899 43.8056 15.787 43.8054 16.0893V34.5768C43.8056 34.8791 43.7239 35.1761 43.5685 35.4383C43.4131 35.7004 43.1894 35.9185 42.9198 36.0708L37.3271 39.2034L38.2028 40.5625C38.7011 41.3417 39.493 41.9022 40.4107 42.1254C41.3284 42.3485 42.2997 42.2166 43.1188 41.7578L45.8852 40.2155C46.8314 39.6853 47.6171 38.9236 48.1637 38.0067C48.7104 37.0899 48.9988 36.05 49 34.9912V15.6748C48.9956 14.6155 48.7047 13.5759 48.1565 12.6593C47.6083 11.7427 46.8218 10.9812 45.8753 10.4505Z" fill="url(#paint2_linear)"/>
<path fill-rule="evenodd" clip-rule="evenodd" d="M45.8753 10.4505L40.7205 7.56848C40.7205 7.56848 36.4514 5.17803 33.5456 3.55869C32.7362 3.10377 31.8198 2.85778 30.8841 2.84428C29.9484 2.83077 29.0248 3.05022 28.2018 3.48158L24.6094 5.35153C24.8793 5.20281 25.1845 5.12461 25.495 5.12461C25.8056 5.12461 26.1108 5.20281 26.3807 5.35153L42.9198 14.5953C43.1894 14.7475 43.4131 14.9656 43.5685 15.2278C43.7239 15.4899 43.8056 15.787 43.8054 16.0893V34.5768C43.8056 34.8791 43.7239 35.1761 43.5685 35.4383C43.4131 35.7004 43.1894 35.9185 42.9198 36.0708L37.3271 39.2034L38.2028 40.5625C38.7011 41.3417 39.493 41.9022 40.4107 42.1254C41.3284 42.3485 42.2997 42.2166 43.1188 41.7578L45.8852 40.2155C46.8314 39.6853 47.6171 38.9236 48.1637 38.0067C48.7104 37.0899 48.9988 36.05 49 34.9912V15.6748C48.9956 14.6155 48.7047 13.5759 48.1565 12.6593C47.6083 11.7427 46.8218 10.9812 45.8753 10.4505Z" fill="url(#paint3_linear)"/>
<path fill-rule="evenodd" clip-rule="evenodd" d="M45.8753 10.4505L40.7205 7.56848C40.7205 7.56848 36.4514 5.17803 33.5456 3.55869C32.7362 3.10377 31.8198 2.85778 30.8841 2.84428C29.9484 2.83077 29.0248 3.05022 28.2018 3.48158L24.6094 5.35153C24.8793 5.20281 25.1845 5.12461 25.495 5.12461C25.8056 5.12461 26.1108 5.20281 26.3807 5.35153L42.9198 14.5953C43.1894 14.7475 43.4131 14.9656 43.5685 15.2278C43.7239 15.4899 43.8056 15.787 43.8054 16.0893V34.5768C43.8056 34.8791 43.7239 35.1761 43.5685 35.4383C43.4131 35.7004 43.1894 35.9185 42.9198 36.0708L37.3271 39.2034L38.2028 40.5625C38.7011 41.3417 39.493 41.9022 40.4107 42.1254C41.3284 42.3485 42.2997 42.2166 43.1188 41.7578L45.8852 40.2155C46.8314 39.6853 47.6171 38.9236 48.1637 38.0067C48.7104 37.0899 48.9988 36.05 49 34.9912V15.6748C48.9956 14.6155 48.7047 13.5759 48.1565 12.6593C47.6083 11.7427 46.8218 10.9812 45.8753 10.4505Z" fill="url(#paint4_linear)"/>
<path opacity="0.9" fill-rule="evenodd" clip-rule="evenodd" d="M36.9291 38.6155L34.501 35.0491C33.2036 36.1793 31.6932 37.0564 30.0527 37.6323L32.6301 41.43C34.083 40.5143 35.516 39.5762 36.9291 38.6155Z" fill="url(#paint5_linear)"/>
</g>
<defs>
<linearGradient id="paint0_linear" x1="36.8991" y1="6.47493" x2="10.2643" y2="45.4752" gradientUnits="userSpaceOnUse">
<stop stop-color="#FF980E"/>
<stop offset="0.21" stop-color="#FF7139"/>
<stop offset="0.36" stop-color="#FF5854"/>
<stop offset="0.46" stop-color="#FF4F5E"/>
<stop offset="0.69" stop-color="#FF3750"/>
<stop offset="0.86" stop-color="#F92261"/>
<stop offset="1" stop-color="#F5156C"/>
</linearGradient>
<linearGradient id="paint1_linear" x1="33.2481" y1="6.97492" x2="5.97975" y2="42.7381" gradientUnits="userSpaceOnUse">
<stop stop-color="#FFF44F" stop-opacity="0.8"/>
<stop offset="0.75" stop-color="#FFF44F" stop-opacity="0"/>
</linearGradient>
<linearGradient id="paint2_linear" x1="36.8878" y1="51.7641" x2="36.8878" y2="3.31621" gradientUnits="userSpaceOnUse">
<stop stop-color="#3A8EE6"/>
<stop offset="0.24" stop-color="#5C79F0"/>
<stop offset="0.63" stop-color="#9059FF"/>
<stop offset="1" stop-color="#C139E6"/>
</linearGradient>
<linearGradient id="paint3_linear" x1="36.8878" y1="42.7047" x2="36.8878" y2="10.0123" gradientUnits="userSpaceOnUse">
<stop stop-color="#00458B" stop-opacity="0.6"/>
<stop offset="0.33" stop-color="#A050FF" stop-opacity="0"/>
</linearGradient>
<linearGradient id="paint4_linear" x1="22.9851" y1="6.86118" x2="49.218" y2="16.6077" gradientUnits="userSpaceOnUse">
<stop stop-color="#6E008B" stop-opacity="0.5"/>
<stop offset="0.5" stop-color="#C846CB" stop-opacity="0"/>
</linearGradient>
<linearGradient id="paint5_linear" x1="31.1644" y1="35.9256" x2="34.4003" y2="39.5495" gradientUnits="userSpaceOnUse">
<stop stop-color="#960E18" stop-opacity="0.6"/>
<stop offset="0.17" stop-color="#A91522" stop-opacity="0.47"/>
<stop offset="0.51" stop-color="#D9283C" stop-opacity="0.19"/>
<stop offset="0.75" stop-color="#FF3750" stop-opacity="0"/>
</linearGradient>
<clipPath id="clip0">
<rect width="50" height="50" fill="white"/>
</clipPath>
</defs>
</svg>
