<svg width="50" height="50" viewBox="0 0 50 50" fill="none" xmlns="http://www.w3.org/2000/svg">
<path fill-rule="evenodd" clip-rule="evenodd" d="M47.9167 25.5792C47.9167 35.9583 41.3583 44.7625 32.2583 47.8729C31.0958 48.1042 30.6833 47.3729 30.6833 46.7458C30.6833 45.9708 30.7104 43.4417 30.7104 40.2958C30.7104 38.1063 29.9771 36.675 29.1542 35.9479C34.2583 35.3646 39.6208 33.3792 39.6208 24.3542C39.6208 21.7875 38.7313 19.6917 37.2604 18.0479C37.4979 17.4542 38.2854 15.0625 37.0354 11.8271C37.0354 11.8271 35.1146 11.1979 30.7396 14.2354C28.9104 13.7146 26.9479 13.4542 25 13.4438C23.0521 13.4542 21.0917 13.7146 19.2646 14.2354C14.8854 11.1979 12.9583 11.8271 12.9583 11.8271C11.7125 15.0625 12.5 17.4521 12.7354 18.0479C11.2708 19.6938 10.375 21.7875 10.375 24.3542C10.375 33.3542 15.725 35.3729 20.8146 35.9646C20.1604 36.5521 19.5667 37.5896 19.3604 39.1083C18.0542 39.7083 14.7354 40.7458 12.6917 37.1542C12.6917 37.1542 11.4792 34.8979 9.17917 34.7333C9.17917 34.7333 6.94375 34.7021 9.02292 36.1604C9.02292 36.1604 10.5229 36.8813 11.5646 39.5979C11.5646 39.5979 12.9125 43.7917 19.2875 42.3688C19.2979 44.3354 19.3188 46.1854 19.3188 46.7438C19.3188 47.3667 18.8979 48.0938 17.7542 47.875C8.65 44.7708 2.08334 35.9604 2.08334 25.5792C2.08334 12.6042 12.3458 2.08334 25 2.08334C37.6562 2.08334 47.9167 12.6021 47.9167 25.5792Z" fill="white"/>
</svg>
