<svg width="50" height="49" viewBox="0 0 50 49" fill="none" xmlns="http://www.w3.org/2000/svg">
<mask id="mask0" mask-type="alpha" maskUnits="userSpaceOnUse" x="0" y="0" width="50" height="50">
<path d="M0 0H49.9844V49.9844H0V0Z" fill="white"/>
</mask>
<g mask="url(#mask0)">
<path fill-rule="evenodd" clip-rule="evenodd" d="M41.3344 11.65C41.3344 12.4456 41.0183 13.2087 40.4557 13.7713C39.8931 14.3339 39.13 14.65 38.3344 14.65C37.5387 14.65 36.7756 14.3339 36.213 13.7713C35.6504 13.2087 35.3344 12.4456 35.3344 11.65C35.3344 10.8544 35.6504 10.0913 36.213 9.52868C36.7756 8.96607 37.5387 8.65 38.3344 8.65C39.13 8.65 39.8931 8.96607 40.4557 9.52868C41.0183 10.0913 41.3344 10.8544 41.3344 11.65ZM24.9906 33.3219C26.0985 33.3433 27.1995 33.1437 28.2293 32.7345C29.259 32.3254 30.1969 31.715 30.9879 30.9391C31.779 30.1632 32.4074 29.2374 32.8364 28.2157C33.2654 27.1941 33.4864 26.0971 33.4864 24.9891C33.4864 23.881 33.2654 22.7841 32.8364 21.7624C32.4074 20.7407 31.779 19.8149 30.9879 19.039C30.1969 18.2631 29.259 17.6527 28.2293 17.2436C27.1995 16.8345 26.0985 16.6348 24.9906 16.6562C22.8086 16.6985 20.7301 17.595 19.2019 19.1531C17.6737 20.7112 16.8176 22.8066 16.8176 24.9891C16.8176 27.1715 17.6737 29.2669 19.2019 30.825C20.7301 32.3831 22.8086 33.2796 24.9906 33.3219ZM24.9906 12.1562C28.3949 12.1562 31.6598 13.5086 34.067 15.9158C36.4742 18.323 37.8265 21.5879 37.8265 24.9922C37.8265 28.3965 36.4742 31.6614 34.067 34.0686C31.6598 36.4758 28.3949 37.8281 24.9906 37.8281C21.5863 37.8281 18.3214 36.4758 15.9142 34.0686C13.507 31.6614 12.1547 28.3965 12.1547 24.9922C12.1547 21.5879 13.507 18.323 15.9142 15.9158C18.3214 13.5086 21.5863 12.1562 24.9906 12.1562ZM24.9906 4.5C18.3219 4.5 17.5281 4.53125 14.8937 4.64687C12.4562 4.75938 11.1344 5.16563 10.2531 5.50938C9.16707 5.90943 8.18462 6.54803 7.37811 7.37813C6.54864 8.18454 5.91105 9.16709 5.51248 10.2531C5.16873 11.1312 4.75936 12.4562 4.64998 14.8937C4.53123 17.5281 4.50311 18.3188 4.50311 24.9906C4.50311 31.6625 4.53123 32.4531 4.64998 35.0906C4.75936 37.5281 5.16873 38.85 5.51248 39.7281C5.96561 40.8969 6.50623 41.7313 7.38123 42.6031C8.25623 43.4813 9.08748 44.0187 10.2531 44.4781C11.1344 44.8156 12.4562 45.2219 14.8937 45.3344C17.5281 45.4531 18.3187 45.4781 24.9937 45.4781C31.6656 45.4781 32.4562 45.4531 35.0937 45.3344C37.5281 45.2219 38.8531 44.8156 39.7312 44.475C40.9 44.0187 41.7312 43.4813 42.6062 42.6031C43.4812 41.7313 44.0219 40.8969 44.4781 39.7281C44.8187 38.8531 45.225 37.525 45.3375 35.0906C45.4562 32.4531 45.4812 31.6625 45.4812 24.9906C45.4812 18.3188 45.4562 17.5281 45.3375 14.8969C45.225 12.4594 44.8187 11.1313 44.4781 10.25C44.0745 9.16517 43.4339 8.18405 42.6031 7.37813C41.7969 6.5477 40.8143 5.90905 39.7281 5.50938C38.8531 5.16563 37.5281 4.75938 35.0937 4.64687C32.4562 4.52812 31.6656 4.5 24.9937 4.5H24.9906ZM24.9937 0C31.7812 0 32.6312 0.03125 35.2969 0.15C37.9594 0.26875 39.775 0.69375 41.3656 1.30938C43.0062 1.95 44.3969 2.80313 45.7906 4.19375C47.1812 5.58437 48.0375 6.975 48.675 8.61875C49.2906 10.2125 49.7156 12.0281 49.8375 14.6875C49.9562 17.3531 49.9875 18.2031 49.9875 24.9906C49.9875 31.7781 49.9562 32.6312 49.8375 35.2938C49.7125 37.9562 49.2906 39.7719 48.675 41.3625C48.0467 43.0297 47.0624 44.5398 45.7906 45.7875C44.5429 47.0593 43.0328 48.0436 41.3656 48.6719C39.7719 49.2906 37.9594 49.7125 35.2969 49.8344C32.6312 49.9594 31.7812 49.9844 24.9937 49.9844C18.2062 49.9844 17.3562 49.9562 14.6906 49.8344C12.0312 49.7125 10.2125 49.2906 8.62186 48.6719C6.95429 48.0444 5.44404 47.0599 4.19686 45.7875C2.92505 44.5398 1.94071 43.0297 1.31248 41.3625C0.696857 39.7719 0.271857 37.9562 0.153107 35.2938C0.0281067 32.6312 -0.00314331 31.7781 -0.00314331 24.9906C-0.00314331 18.2031 0.0312317 17.3531 0.156232 14.6875C0.274982 12.0312 0.699982 10.2094 1.31248 8.61875C1.95311 6.975 2.80936 5.5875 4.19998 4.19375C5.59061 2.80313 6.98123 1.95 8.62498 1.30938C10.2125 0.69375 12.0281 0.26875 14.6875 0.15625C17.3531 0.03125 18.2031 0 24.9906 0" fill="white"/>
</g>
</svg>
