<svg width="50" height="50" viewBox="0 0 50 50" fill="none" xmlns="http://www.w3.org/2000/svg">
<path d="M47.8281 25C47.8281 31.0544 45.423 36.8608 41.1419 41.1419C36.8608 45.423 31.0544 47.8281 25 47.8281C18.9456 47.8281 13.1392 45.423 8.85808 41.1419C4.57697 36.8608 2.17188 31.0544 2.17188 25C2.17188 18.9456 4.57697 13.1392 8.85808 8.85808C13.1392 4.57698 18.9456 2.17188 25 2.17188C31.0544 2.17188 36.8608 4.57698 41.1419 8.85808C45.423 13.1392 47.8281 18.9456 47.8281 25V25Z" fill="url(#paint0_linear)" stroke="black" stroke-width="1.82625"/>
<path d="M43.9923 25C43.9923 27.4941 43.501 29.9638 42.5466 32.268C41.5921 34.5723 40.1932 36.666 38.4296 38.4296C36.666 40.1932 34.5723 41.5921 32.268 42.5466C29.9638 43.501 27.4941 43.9923 25 43.9923C22.5059 43.9923 20.0362 43.501 17.732 42.5466C15.4277 41.5921 13.334 40.1932 11.5705 38.4296C9.80686 36.666 8.40789 34.5723 7.45344 32.268C6.49899 29.9638 6.00775 27.4941 6.00775 25C6.00775 22.5059 6.49899 20.0362 7.45344 17.732C8.40789 15.4277 9.80686 13.334 11.5705 11.5704C13.334 9.80685 15.4277 8.40789 17.732 7.45344C20.0362 6.49899 22.5059 6.00774 25 6.00774C27.4941 6.00774 29.9638 6.49899 32.268 7.45344C34.5723 8.40789 36.666 9.80685 38.4296 11.5704C40.1932 13.334 41.5921 15.4277 42.5466 17.732C43.501 20.0362 43.9923 22.5059 43.9923 25V25Z" fill="url(#paint1_linear)"/>
<path d="M36.6952 34.393H13.3057V37.3869H36.6952V34.393Z" fill="black"/>
<path d="M13.3048 30.6523V33.6461H23.222V30.6523H13.3048ZM26.7772 30.6523V33.6461H36.6943V30.6523H26.7772Z" fill="black"/>
<path d="M13.3048 26.91V29.9038H23.222V26.91H13.3048ZM26.7772 26.91V29.9038H36.6943V26.91H26.7772Z" fill="black"/>
<path d="M36.6952 23.166H13.3057V26.1599H36.6952V23.166Z" fill="black"/>
<path d="M24.9996 8.87082C22.8094 8.87082 20.9557 9.8981 19.6317 11.2449C18.3077 12.5916 17.4104 14.2496 16.7431 15.8526C15.4086 19.0586 15.0064 22.1853 15.0064 22.1853L14.9772 22.4192H18.5616C18.649 21.8604 19.0464 19.5624 20.0235 17.215C20.5807 15.8763 21.3244 14.5954 22.1695 13.7358C23.0145 12.8763 23.8546 12.426 24.9996 12.426C26.1446 12.426 26.9905 12.8763 27.8356 13.7358C28.6806 14.5954 29.4185 15.8763 29.9757 17.215C30.9528 19.5624 31.3502 21.8604 31.4375 22.4192H35.022L34.9927 22.1853C34.9927 22.1853 34.5964 19.0586 33.2619 15.8526C32.5947 14.2496 31.6915 12.5916 30.3675 11.2449C29.0435 9.8981 27.1898 8.87082 24.9996 8.87082Z" fill="black"/>
<defs>
<linearGradient id="paint0_linear" x1="1.04918" y1="1.04918" x2="48.9508" y2="48.9508" gradientUnits="userSpaceOnUse">
<stop stop-color="white"/>
<stop offset="1" stop-color="#B8CAFF"/>
</linearGradient>
<linearGradient id="paint1_linear" x1="6.00775" y1="6.00773" x2="43.9923" y2="43.9923" gradientUnits="userSpaceOnUse">
<stop stop-color="white"/>
<stop offset="1" stop-color="#2A53C6"/>
</linearGradient>
</defs>
</svg>
