<svg width="50" height="50" viewBox="0 0 50 50" fill="none" xmlns="http://www.w3.org/2000/svg">
<g clip-path="url(#clip0)">
<path d="M38.2424 7.30866C35.3065 5.35815 31.5519 4.72678 29.4797 4.50624C27.2619 4.27046 25.3357 4.31205 23.6415 4.56493C23.4979 4.56308 23.3552 4.55731 23.2109 4.55731C23.1007 4.55731 22.9922 4.56205 22.8815 4.56328C22.927 4.50665 22.9586 4.47165 22.9586 4.47165C22.9586 4.47165 22.8695 4.48585 22.6946 4.56637C22.1445 4.57543 21.597 4.59479 21.0577 4.63227C21.809 3.79457 22.4245 3.35554 22.4245 3.35554C22.4245 3.35554 21.694 3.46426 20.361 4.69322C19.7269 4.75253 19.1015 4.83119 18.4866 4.929C19.8872 3.00114 21.3525 2.18939 21.3525 2.18939C21.3525 2.18939 19.5765 1.82161 16.7956 4.66377C16.563 4.90161 16.3472 5.14893 16.1385 5.39933C8.0337 7.39412 2.23317 12.7175 2.23317 18.9736C2.23317 20.2005 1.86287 21.55 2.26212 22.8973C2.10258 25.0498 2.44231 30.9232 2.44231 30.9232C2.44231 30.9232 4.63639 43.0004 13.0736 45.1003C13.2076 45.1328 11.3108 42.0896 10.4717 38.4197C12.1054 40.1099 14.0523 41.4465 16.2375 41.6782C16.5057 41.7064 14.9893 39.899 13.6611 37.7175L32.8339 44.2877C42.8616 39.9068 41.6942 40.3016 43.8472 37.9298C48.5905 32.7075 49.2545 29.7443 48.0596 20.9956C47.2512 15.0899 42.9657 9.24085 38.2424 7.30866Z" fill="url(#paint0_linear)"/>
<path d="M4.59324 12.8241L1.73022 29.3812L3.31773 34.384L35.0079 45.1004L40.8849 19.6845L4.59324 12.8241Z" fill="#FBFBFB"/>
<path d="M4.68253 13.3871C4.84147 13.7349 4.7947 13.8173 4.69569 13.8173C4.65115 13.8173 4.59608 13.8006 4.54445 13.7841C4.49283 13.7675 4.44444 13.751 4.41326 13.751C4.32559 13.751 4.37499 13.8826 4.87143 14.517C5.57357 15.4243 15.8852 31.2572 16.4486 31.2572C16.4516 31.2572 16.4543 31.2568 16.4567 31.256C21.2571 29.5163 41.6719 22.3893 41.6719 22.3893L39.5833 19.2945L4.68253 13.3871Z" fill="#999999"/>
<path d="M4.98199 12.9981C4.98199 12.9981 5.13587 13.8078 5.84873 14.704C6.55735 15.6084 16.0751 30.2659 16.5527 30.1368C22.7875 28.4531 45.4086 19.4959 45.4086 19.4959L4.98199 12.9981Z" fill="#F8F8F8"/>
<path d="M33.8761 44.7187L3.75931 34.5341L3.8658 35.2497L34.2112 45.5117L33.8761 44.7187Z" fill="#999999"/>
<path d="M11.6829 12.3132C11.6829 12.3132 0.725235 15.5771 5.75317 26.9406C5.75317 26.9406 3.44774 24.7937 2.07505 22.0485C2.0133 21.9256 4.36307 13.4349 4.36307 13.4349L11.6829 12.3132Z" fill="url(#paint1_linear)"/>
<path d="M5.75316 26.9406C4.80017 26.9239 3.26915 26.1243 2.77251 25.1563C2.15177 35.6786 6.37269 41.8236 13.0738 45.1007C10.8842 44.8453 0 39.0034 0 24.9456C0 12.9924 9.3254 2.30799 23.9193 1.81851C24.0087 2.48859 16.6841 4.16893 16.4498 4.95906C16.0862 6.18884 15.2504 7.52755 14.5455 8.60062C13.5903 10.0546 15.873 11.298 14.1954 11.6897C11.6711 12.2788 8.30418 11.9527 5.82139 15.2355C2.0892 20.1705 4.57969 25.8157 5.75316 26.9406Z" fill="url(#paint2_radial)"/>
<path d="M27.747 2.20318C18.2957 1.46556 13.4315 5.31201 10.309 9.78468C9.17175 11.4127 9.29626 12.9077 9.68782 14.7139C9.85607 15.4849 10.0261 15.8543 9.82125 16.6403C9.70827 17.074 9.7271 17.4788 9.5868 17.7346C9.39263 18.0882 9.14543 18.4747 9.06262 19.1095C8.85571 20.695 9.40741 21.1999 9.75221 21.7332C10.2434 21.2371 11.2028 20.0696 12.9329 19.3721C14.6629 18.6746 15.8012 17.6265 17.9693 16.5013C20.9317 14.9645 24.404 17.296 30.9876 15.1018C33.0135 14.4266 37.6693 7.41182 38.7745 7.14247C35.6965 3.68048 30.46 2.41466 27.747 2.20318Z" fill="url(#paint3_linear)"/>
<path d="M21.5029 0.0065918C21.5029 0.0065918 19.8153 0.835642 19.0804 2.33374C20.7772 1.46371 21.7622 0.988438 22.2279 0.931808C22.2279 0.931808 21.7819 1.15153 21.2287 2.34651C22.2066 2.02794 22.5433 1.82717 22.8118 1.82408C22.8118 1.82408 22.7338 1.94969 22.6626 3.1424C21.1609 2.64736 18.2706 3.22415 16.7331 4.20353C16.2115 1.37516 21.5029 0.0065918 21.5029 0.0065918Z" fill="#3F6499"/>
<path d="M28.219 1.77713C25.3219 1.39535 22.9003 1.47051 20.8415 1.87392C21.4889 1.24276 22.238 0.931816 22.238 0.931816C21.2672 1.01913 20.0553 1.66367 19.0154 2.3461C18.4915 2.51619 17.9922 2.70812 17.5193 2.92248C17.8088 2.53432 18.1457 2.11959 18.4749 1.80123C19.6975 0.618605 21.513 0.00659893 21.513 0.00659893C19.9634 -0.10913 14.7775 1.24111 11.657 7.66965C11.1456 8.30328 10.6683 8.95359 10.2136 9.60492C9.03974 11.2861 9.16851 12.8293 9.57343 14.6943C9.74593 15.4906 9.77772 16.7618 9.60745 17.5832C9.57343 17.7478 9.12903 18.1728 9.01504 19.3188C8.89316 20.5348 9.31975 21.1317 9.74026 21.6257C11.2344 19.4034 12.7086 18.9629 12.7086 18.9629C14.8 18.0915 15.6706 17.1607 17.9094 15.9991C20.9682 14.4116 31.6645 19.5924 38.4617 17.3269C40.5536 16.63 37.6565 7.57451 38.7984 7.29651C35.62 3.72167 31.0048 2.1443 28.219 1.77713Z" fill="url(#paint4_linear)"/>
<path d="M49.4364 21.2695C47.7608 12.3659 39.6988 4.26592 33.2157 3.817C30.3385 3.61767 31.2221 5.11824 29.4218 5.68968C21.6634 8.15232 21.5448 9.59009 21.5448 9.59009C37.9952 10.3765 38.2447 26.9009 33.8391 31.0816C35.0788 30.7875 36.4229 29.2459 37.6573 26.8259C37.5091 27.8413 37.382 29.087 37.1969 30.4768C36.6325 34.7178 37.3636 43.5764 25.3821 49.5052C25.3821 49.5052 31.9362 48.9603 35.1863 45.239C33.8646 48.3304 30.2379 50.0002 30.2379 50.0002C32.9068 49.6032 39.9176 47.4991 44.3835 41.8184C49.4382 35.3885 50.9583 29.3561 49.4364 21.2695Z" fill="url(#paint5_linear)"/>
<path d="M33.4048 37.5237C33.4048 37.5237 38.749 36.004 40.4713 33.0689C40.2624 36.4912 37.2103 40.0007 37.2103 40.0007C37.2103 40.0007 41.6721 39.0823 43.5749 35.8888C43.3271 38.7705 39.8919 42.6652 39.8919 42.6652C43.4038 42.0241 52.2279 36.3546 49.4365 21.2695C47.7881 12.3608 39.6989 4.26592 33.2159 3.817C30.3387 3.61767 31.2223 5.11824 29.422 5.68968C21.6636 8.15232 21.545 9.59008 21.545 9.59008C37.9954 10.3765 42.367 19.1334 33.8393 30.8478C35.079 30.5536 35.576 29.8606 36.5073 28.7266C36.5069 28.7266 36.9293 33.2116 33.4048 37.5237Z" fill="url(#paint6_linear)"/>
<path d="M12.271 17.6203C12.271 17.6203 11.3156 18.3001 10.6238 18.1269C9.80482 17.9224 9.66614 17.1152 9.66614 17.1152C9.64812 17.2805 9.62726 17.4401 9.5971 17.5832C9.56308 17.7478 9.11868 18.1728 9.00469 19.3188C8.88281 20.5347 9.33167 21.239 9.75218 21.733C11.2466 19.5107 12.6984 18.9629 12.6984 18.9629C12.1297 18.7607 12.271 17.6203 12.271 17.6203Z" fill="url(#paint7_linear)"/>
<mask id="mask0" mask-type="alpha" maskUnits="userSpaceOnUse" x="18" y="-2" width="21" height="20">
<path d="M38.733 -1.48636H18.4838V17.7344H38.733V-1.48636Z" fill="url(#paint8_radial)"/>
</mask>
<g mask="url(#mask0)">
<g opacity="0.6">
<g opacity="0.2">
<path opacity="0.2" d="M33.1052 3.796C33.3291 3.7369 34.2432 3.83801 34.8431 4.11168C35.4432 4.38535 36.4776 4.86927 35.6501 5.07973C34.8224 5.29018 34.3467 4.9535 33.9328 4.5956C33.519 4.23771 32.5466 3.94323 33.1052 3.796Z" fill="url(#paint9_linear)"/>
</g>
</g>
<path d="M12.3605 17.4873C12.3605 17.4873 17.6018 8.70214 22.3402 6.33134C22.7802 6.10626 15.7795 8.22398 12.9622 11.3868C11.2876 13.2667 12.1744 16.9471 12.3605 17.4873Z" fill="url(#paint10_linear)"/>
<path opacity="0.1" d="M12.3605 17.4873C12.3654 17.4842 12.3706 17.4811 12.3757 17.478C13.731 16.6263 16.0536 16.1358 16.8023 14.592C19.6848 8.64717 22.3405 6.33134 22.3405 6.33134C17.6018 8.70215 12.3605 17.4873 12.3605 17.4873Z" fill="#F2F2F2"/>
</g>
<path d="M13.5093 14.7077C13.6363 14.7077 13.7393 14.603 13.7393 14.4738C13.7393 14.3446 13.6363 14.2399 13.5093 14.2399C13.3823 14.2399 13.2793 14.3446 13.2793 14.4738C13.2793 14.603 13.3823 14.7077 13.5093 14.7077Z" fill="white"/>
<path d="M46.2636 13.3871C42.6757 7.83211 39.8332 6.4205 39.8332 6.4205C39.8332 6.4205 39.9638 10.4669 41.9558 12.4187C42.1833 12.6417 39.572 10.6823 39.572 10.6823C39.572 10.6823 39.0136 12.5513 40.2932 14.6999C39.9214 14.1976 39.6754 14.0074 39.6754 14.0074C39.6754 14.0074 37.2645 15.1381 36.5529 16.7068C36.1854 16.0013 35.9099 15.5858 35.9099 15.5858C35.9099 15.5858 34.2424 18.9705 34.4519 22.895C34.7929 29.2762 33.277 31.627 33.277 31.627C33.277 31.627 37.3378 30.0425 39.2853 24.9411C40.0899 27.1101 39.2608 29.393 39.2608 29.393C39.2608 29.393 42.5419 26.8994 43.2475 22.3545C44.0296 23.6374 43.7996 26.1979 43.7996 26.1979C43.7996 26.1979 45.8939 23.2321 45.9449 20.0024C46.9155 20.6908 47.0048 23.3794 47.0048 23.3794C47.0048 23.3794 50.1097 19.342 46.2636 13.3871Z" fill="url(#paint11_linear)"/>
<path d="M42.7766 9.50505C41.839 7.72793 40.1845 6.59534 38.7302 5.67857C35.1043 3.39178 32.7723 3.07054 32.7723 3.07054C32.7723 3.07054 29.426 3.70355 30.0008 4.65039C30.0304 4.69899 30.0994 4.76056 30.1968 4.83099C27.2615 3.45583 25.5965 6.61779 25.5965 6.61779C23.9193 6.51421 21.877 7.35397 21.2816 9.60348C21.2198 9.837 22.0329 9.70562 22.4512 9.79808C24.8967 10.3388 27.1989 11.5114 28.2568 12.0908C30.7175 13.4392 32.1775 15.6844 33.0203 17.3685C34.0401 19.4059 34.4566 22.991 34.4566 22.991C34.4566 22.991 37.1398 19.2422 36.4986 17.3174C37.5614 17.9887 37.7711 20.3838 37.7711 20.3838C37.7711 20.3838 39.5599 17.5342 39.031 15.0522C40.4108 15.9074 40.4568 17.6471 40.4568 17.6471C40.4568 17.6471 41.8616 15.6638 41.2267 12.411C42.6152 13.534 42.9057 14.9886 42.9057 14.9886C42.9057 14.9886 44.0407 11.9012 42.7766 9.50505Z" fill="url(#paint12_linear)"/>
</g>
<defs>
<linearGradient id="paint0_linear" x1="40.3978" y1="41.5775" x2="7.48474" y2="9.21774" gradientUnits="userSpaceOnUse">
<stop stop-color="#130036"/>
<stop offset="0.2297" stop-color="#18023B"/>
<stop offset="0.5122" stop-color="#26094A"/>
<stop offset="0.8211" stop-color="#3D1563"/>
<stop offset="1" stop-color="#4E1D75"/>
</linearGradient>
<linearGradient id="paint1_linear" x1="2.07379" y1="19.6269" x2="11.6829" y2="19.6269" gradientUnits="userSpaceOnUse">
<stop stop-color="#3156A8"/>
<stop offset="0.2474" stop-color="#3351A4"/>
<stop offset="0.5365" stop-color="#3B4397"/>
<stop offset="0.8453" stop-color="#472C82"/>
<stop offset="1" stop-color="#4E1D75"/>
</linearGradient>
<radialGradient id="paint2_radial" cx="0" cy="0" r="1" gradientUnits="userSpaceOnUse" gradientTransform="translate(11.9601 23.4595) scale(17.2592 25.4538)">
<stop offset="0.1654" stop-color="#14CDDA"/>
<stop offset="0.5478" stop-color="#2061BD"/>
<stop offset="0.6546" stop-color="#2658AC"/>
<stop offset="0.864" stop-color="#373F81"/>
<stop offset="1" stop-color="#432D62"/>
</radialGradient>
<linearGradient id="paint3_linear" x1="9.01741" y1="11.9225" x2="38.7745" y2="11.9225" gradientUnits="userSpaceOnUse">
<stop stop-color="#2061BD"/>
<stop offset="0.1846" stop-color="#2B51AC"/>
<stop offset="0.6826" stop-color="#442C84"/>
<stop offset="0.9409" stop-color="#4E1D75"/>
</linearGradient>
<linearGradient id="paint4_linear" x1="13.3977" y1="4.7786" x2="34.1626" y2="22.5259" gradientUnits="userSpaceOnUse">
<stop offset="0.0202" stop-color="#48A8E0"/>
<stop offset="0.3883" stop-color="#2061BD"/>
<stop offset="0.4968" stop-color="#2B51AC"/>
<stop offset="0.7892" stop-color="#442C84"/>
<stop offset="0.9409" stop-color="#4E1D75"/>
</linearGradient>
<linearGradient id="paint5_linear" x1="3.9837" y1="69.4816" x2="45.0443" y2="9.63019" gradientUnits="userSpaceOnUse">
<stop offset="0.3787" stop-color="#3156A8"/>
<stop offset="1" stop-color="#4E1D75"/>
</linearGradient>
<linearGradient id="paint6_linear" x1="19.5872" y1="57.3799" x2="42.4064" y2="6.98878" gradientUnits="userSpaceOnUse">
<stop stop-color="#29ABE2"/>
<stop offset="0.7733" stop-color="#385AA6"/>
<stop offset="0.8575" stop-color="#414293"/>
<stop offset="1" stop-color="#4E1D75"/>
</linearGradient>
<linearGradient id="paint7_linear" x1="9.77255" y1="18.952" x2="10.9919" y2="19.6414" gradientUnits="userSpaceOnUse">
<stop stop-color="#B0DCD6"/>
<stop offset="1" stop-color="#53ACE0"/>
</linearGradient>
<radialGradient id="paint8_radial" cx="0" cy="0" r="1" gradientUnits="userSpaceOnUse" gradientTransform="translate(31.2569 14.0025) scale(10.5214 10.7014)">
<stop offset="0.868" stop-color="white"/>
<stop offset="1"/>
</radialGradient>
<linearGradient id="paint9_linear" x1="35.6766" y1="4.75377" x2="33.2489" y2="4.24949" gradientUnits="userSpaceOnUse">
<stop stop-color="#3092B9"/>
<stop offset="0.2199" stop-color="#258DB6"/>
<stop offset="0.6564" stop-color="#1685B1"/>
<stop offset="1" stop-color="#1082AF"/>
</linearGradient>
<linearGradient id="paint10_linear" x1="16.3556" y1="7.8303" x2="18.4152" y2="15.9518" gradientUnits="userSpaceOnUse">
<stop offset="0.0074" stop-color="#1398D1" stop-opacity="0"/>
<stop offset="0.2482" stop-color="#1187C2" stop-opacity="0.6197"/>
<stop offset="0.6422" stop-color="#3F6499" stop-opacity="0.71"/>
<stop offset="1" stop-color="#2F4282" stop-opacity="0.5"/>
</linearGradient>
<linearGradient id="paint11_linear" x1="41.7499" y1="26.7988" x2="34.0899" y2="9.88334" gradientUnits="userSpaceOnUse">
<stop stop-color="#409EC3"/>
<stop offset="0.62" stop-color="#2061BD"/>
</linearGradient>
<linearGradient id="paint12_linear" x1="35.7872" y1="21.2227" x2="30.2858" y2="4.57561" gradientUnits="userSpaceOnUse">
<stop stop-color="#14B2DA"/>
<stop offset="0.4028" stop-color="#297CCC"/>
<stop offset="0.5077" stop-color="#256FC5"/>
<stop offset="0.6492" stop-color="#2164BF"/>
<stop offset="0.8162" stop-color="#2061BD"/>
<stop offset="0.9835" stop-color="#2061BD"/>
</linearGradient>
<clipPath id="clip0">
<rect width="50" height="50" fill="white"/>
</clipPath>
</defs>
</svg>
