<svg width="50" height="50" viewBox="0 0 50 50" fill="none" xmlns="http://www.w3.org/2000/svg">
<g clip-path="url(#clip0)">
<path d="M3.77844 0.382111L25.0753 3.57239L46.2216 0.382111L42.7191 45.1602L25.0753 49.6179L6.49346 45.1602L3.77844 0.382111Z" fill="#E5E7E8" stroke="#CCCCCC"/>
<path d="M25.0753 8.39521L42.1292 5.33603L39.8567 42.0461L25.0753 45.7172V8.39521Z" fill="white"/>
<path d="M29.5179 17.5249H2.93414V32.4751H29.5179V17.5249Z" fill="#FF2600"/>
<path d="M47.0658 17.5249H28.7217V32.4751H47.0658V17.5249Z" fill="#FF501A"/>
<path d="M5.51266 19.1191V30.879H7.69546V28.8946V26.8998H10.6615L12.0506 25.657V23.0773V20.4977L10.6407 19.1191H5.51266ZM7.69546 21.3959H9.77381V24.811H7.69546V21.3959Z" fill="white"/>
<path d="M13.001 19.1191V30.879H18.3901L19.6434 29.6675V20.3201L18.317 19.1191H13.001ZM15.2778 21.3959H17.5546V28.6022H15.2778V21.3959Z" fill="white"/>
<path d="M20.7776 19.1221C22.611 19.1221 24.4444 19.1221 26.2777 19.1221C26.2777 19.8808 26.2777 20.6394 26.2777 21.398C25.1398 21.398 24.0018 21.398 22.8639 21.398C22.8639 22.2242 22.8639 23.0504 22.8639 23.8766C23.8438 23.9135 24.8237 23.8396 25.8036 23.8766V25.0015V26.1298C24.8237 26.1667 23.8438 26.0929 22.8639 26.1298V28.5182V30.8809C22.1685 30.8809 21.4731 30.8809 20.7776 30.8809C20.7776 26.9613 20.7776 23.0417 20.7776 19.1221Z" fill="white"/>
<path d="M31.4638 30.2645L30.7347 29.6482C30.7347 28.9841 30.7347 28.3201 30.7347 27.6561C31.4617 27.6563 32.1887 27.6565 32.9157 27.6567C32.9157 27.9728 32.9157 28.2889 32.9157 28.605C33.5479 28.605 34.1801 28.605 34.8123 28.605C34.8123 25.4441 34.8123 22.2831 34.8123 19.1221C35.5393 19.1221 36.2664 19.1221 36.9934 19.122C36.9934 22.6307 36.9934 26.1394 36.9934 29.6481C36.5073 30.0591 36.0212 30.47 35.5351 30.8809C34.421 30.8809 33.307 30.8809 32.193 30.8809C31.95 30.6755 31.7069 30.47 31.4638 30.2645V30.2645Z" fill="white"/>
<path d="M38.6708 30.2645L37.966 29.6481V27.6501C38.6548 27.6501 39.4339 27.6567 40.1227 27.6567C40.1227 27.9728 40.1227 28.2889 40.1227 28.605C40.8814 28.605 41.64 28.605 42.3986 28.605C42.3986 27.7832 42.3986 26.9613 42.3986 26.1395C41.3302 26.1395 40.2618 26.1395 39.1933 26.1395L37.9417 24.9067V22.6308V20.3549L39.1933 19.1221C40.4844 19.1221 41.7755 19.1221 43.0666 19.1221L44.4873 20.3549C44.4867 20.9555 44.4858 21.5561 44.4849 22.1567C43.7895 22.1567 43.0941 22.1567 42.3986 22.1567C42.3986 21.9038 42.3986 21.6509 42.3986 21.398C41.64 21.398 40.8814 21.398 40.1227 21.398C40.1227 22.2199 40.1227 23.0417 40.1227 23.8636C41.1221 23.8636 42.1214 23.8636 43.1207 23.8636C43.5754 24.2662 44.4849 25.0713 44.4849 25.0713C44.4849 26.5937 44.4849 28.1161 44.4849 29.6385L43.7866 30.2597L43.0884 30.8809H41.2442H39.4L38.6708 30.2645Z" fill="white"/>
</g>
<defs>
<clipPath id="clip0">
<rect width="50" height="50" fill="white"/>
</clipPath>
</defs>
</svg>
