<svg width="50" height="50" viewBox="0 0 50 50" fill="none" xmlns="http://www.w3.org/2000/svg">
<path d="M49.3476 24.3943L47.275 23.1113C47.2575 22.9094 47.2377 22.708 47.216 22.5075L48.9972 20.8462C49.1783 20.6774 49.2594 20.4274 49.2104 20.1854C49.1627 19.9425 48.9925 19.7425 48.7608 19.6561L46.484 18.8047C46.4269 18.6075 46.367 18.4118 46.3057 18.217L47.7259 16.2443C47.8708 16.0439 47.9005 15.783 47.8061 15.5542C47.7118 15.3264 47.5057 15.1632 47.2618 15.1231L44.8609 14.7325C44.7675 14.5505 44.6703 14.3712 44.5722 14.1934L45.5811 11.9788C45.6844 11.7533 45.6632 11.491 45.5255 11.2863C45.3882 11.0807 45.1557 10.9604 44.9075 10.9698L42.4708 11.0547C42.3448 10.8972 42.2165 10.741 42.0858 10.5877L42.6458 8.21415C42.7024 7.97311 42.6311 7.72075 42.4557 7.54575C42.2816 7.37122 42.0288 7.29905 41.7877 7.35566L39.4146 7.91509C39.2608 7.7849 39.1047 7.65613 38.9467 7.53019L39.0321 5.09339C39.0415 4.8467 38.9212 4.61226 38.7156 4.47547C38.5094 4.33773 38.2486 4.31698 38.0236 4.41934L35.8094 5.42877C35.6307 5.33066 35.4514 5.23349 35.2703 5.13962L34.8788 2.73821C34.8391 2.49481 34.6759 2.28821 34.4476 2.19387C34.2198 2.09905 33.9585 2.12971 33.758 2.27405L31.784 3.69434C31.5896 3.63254 31.3943 3.57311 31.1972 3.51651L30.3458 1.23915C30.2594 1.00707 30.0594 0.83679 29.8165 0.788677C29.5741 0.741036 29.3245 0.821696 29.1561 1.00188L27.4948 2.78443C27.2943 2.76226 27.0925 2.74198 26.891 2.72547L25.608 0.652357C25.4783 0.442451 25.2486 0.314621 25.0014 0.314621C24.7542 0.314621 24.5245 0.442451 24.3953 0.652357L23.1123 2.72547C22.9104 2.74198 22.7085 2.76226 22.508 2.78443L20.8462 1.00188C20.6778 0.821696 20.4278 0.741036 20.1858 0.788677C19.9429 0.837262 19.7429 1.00707 19.6566 1.23915L18.8052 3.51651C18.608 3.57311 18.4127 3.63302 18.2179 3.69434L16.2443 2.27405C16.0439 2.12924 15.7825 2.09858 15.5542 2.19387C15.3264 2.28821 15.1627 2.49481 15.1231 2.73821L14.7316 5.13962C14.5505 5.23349 14.3712 5.33019 14.1925 5.42877L11.9783 4.41934C11.7533 4.31651 11.491 4.33773 11.2863 4.47547C11.0807 4.61226 10.9604 4.8467 10.9698 5.09339L11.0547 7.53019C10.8972 7.65613 10.741 7.7849 10.5868 7.91509L8.21368 7.35566C7.97264 7.29953 7.71981 7.37122 7.54528 7.54575C7.36981 7.72075 7.29858 7.97311 7.35519 8.21415L7.91415 10.5877C7.78443 10.7415 7.65613 10.8972 7.53019 11.0547L5.0934 10.9698C4.84764 10.9627 4.61274 11.0807 4.47547 11.2863C4.33774 11.491 4.31698 11.7533 4.41934 11.9788L5.42877 14.1934C5.33066 14.3712 5.23349 14.5505 5.13962 14.7325L2.73868 15.1231C2.49481 15.1627 2.28915 15.3259 2.19434 15.5542C2.1 15.783 2.13066 16.0439 2.27453 16.2443L3.69481 18.217C3.63302 18.4118 3.57311 18.6075 3.51651 18.8047L1.23915 19.6561C1.00802 19.7425 0.837736 19.9425 0.789623 20.1854C0.741509 20.4278 0.82217 20.6774 1.00283 20.8462L2.78443 22.5075C2.76226 22.708 2.74245 22.9099 2.72547 23.1113L0.65283 24.3943C0.442924 24.5241 0.315094 24.7533 0.315094 25.0009C0.315094 25.2486 0.442924 25.4778 0.65283 25.6071L2.72547 26.8901C2.74245 27.092 2.76226 27.2934 2.78443 27.4939L1.00283 29.1557C0.82217 29.3241 0.741509 29.5741 0.789623 29.816C0.837736 30.059 1.00802 30.2585 1.23915 30.3453L3.51651 31.1967C3.57311 31.3939 3.63302 31.5896 3.69481 31.7844L2.27453 33.7575C2.13019 33.9585 2.09953 34.2193 2.19434 34.4472C2.28915 34.6759 2.49528 34.8391 2.73915 34.8783L5.13962 35.2689C5.23349 35.4509 5.32972 35.6302 5.42877 35.809L4.41934 38.0226C4.31651 38.2476 4.33774 38.5094 4.47547 38.7151C4.61321 38.9212 4.84764 39.0415 5.0934 39.0316L7.52924 38.9462C7.65613 39.1047 7.78396 39.2599 7.91415 39.4141L7.35519 41.7882C7.29858 42.0288 7.36981 42.2802 7.54528 42.4552C7.71934 42.6311 7.97264 42.7014 8.21368 42.6448L10.5868 42.0858C10.741 42.217 10.8972 42.3443 11.0547 42.4698L10.9698 44.9071C10.9604 45.1538 11.0807 45.3877 11.2863 45.5255C11.491 45.6627 11.7533 45.6835 11.9783 45.5807L14.1925 44.5717C14.3708 44.6707 14.55 44.767 14.7316 44.8608L15.1231 47.2608C15.1627 47.5052 15.3259 47.7118 15.5542 47.8057C15.7821 47.9005 16.0439 47.8698 16.2443 47.7259L18.217 46.3047C18.4118 46.3665 18.6075 46.4269 18.8047 46.4835L19.6561 48.7599C19.7425 48.991 19.9425 49.1623 20.1854 49.2094C20.4278 49.2585 20.6774 49.1774 20.8458 48.9962L22.5075 47.2146C22.708 47.2377 22.9099 47.2571 23.1118 47.275L24.3948 49.3476C24.5241 49.5566 24.7538 49.6854 25.0009 49.6854C25.2481 49.6854 25.4778 49.5571 25.6075 49.3476L26.8906 47.275C27.0925 47.2571 27.2939 47.2377 27.4943 47.2146L29.1557 48.9962C29.3241 49.1774 29.5741 49.2585 29.816 49.2094C30.059 49.1618 30.259 48.991 30.3453 48.7599L31.1967 46.4835C31.3939 46.4269 31.5896 46.3665 31.7844 46.3047L33.7575 47.7259C33.958 47.8698 34.2193 47.9005 34.4472 47.8057C34.6755 47.7118 34.8387 47.5047 34.8783 47.2608L35.2698 44.8608C35.4509 44.767 35.6302 44.6693 35.809 44.5717L38.0231 45.5807C38.2481 45.6835 38.5099 45.6627 38.7151 45.5255C38.9208 45.3877 39.0406 45.1542 39.0316 44.9071L38.9467 42.4698C39.1042 42.3439 39.2604 42.217 39.4142 42.0858L41.7873 42.6448C42.0283 42.7014 42.2811 42.6311 42.4552 42.4552C42.6307 42.2802 42.7019 42.0288 42.6453 41.7882L42.0863 39.4141C42.2165 39.2599 42.3448 39.1047 42.4703 38.9462L44.9071 39.0316C45.1528 39.0415 45.3877 38.9212 45.525 38.7151C45.6627 38.5094 45.684 38.2476 45.5807 38.0226L44.5717 35.809C44.6703 35.6302 44.767 35.4509 44.8604 35.2689L47.2613 34.8783C47.5057 34.8391 47.7113 34.6759 47.8057 34.4472C47.9 34.2193 47.8703 33.9585 47.7255 33.7575L46.3052 31.7844C46.3665 31.5896 46.4264 31.3939 46.4835 31.1967L48.7604 30.3453C48.992 30.2585 49.1627 30.059 49.2099 29.816C49.259 29.5736 49.1778 29.3241 48.9967 29.1557L47.2156 27.4939C47.2373 27.2934 47.2571 27.0915 47.2745 26.8901L49.3472 25.6071C49.5571 25.4778 49.6849 25.2481 49.6849 25.0009C49.6849 24.7538 49.5575 24.5241 49.3476 24.3943ZM35.4755 41.5882C34.684 41.4174 34.1807 40.6373 34.3505 39.8434C34.5198 39.0505 35.2995 38.5458 36.0906 38.7165C36.8821 38.8858 37.3863 39.6674 37.2165 40.4599C37.0467 41.2524 36.2665 41.7575 35.4755 41.5882ZM34.7712 36.825C34.0491 36.6703 33.3387 37.1297 33.184 37.8533L32.4481 41.2873C30.1774 42.3179 27.6557 42.8906 25 42.8906C22.2835 42.8906 19.7071 42.2896 17.3958 41.2151L16.6604 37.7811C16.5057 37.0585 15.7953 36.5981 15.0736 36.7533L12.042 37.4042C11.4792 36.825 10.9557 36.208 10.4745 35.5566H25.2255C25.3925 35.5566 25.5038 35.5264 25.5038 35.3745V30.1566C25.5038 30.0047 25.3925 29.9745 25.2255 29.9745H20.9113V26.667H25.5774C26.0033 26.667 27.8547 26.7887 28.4467 29.1552C28.6321 29.883 29.0392 32.2505 29.3175 33.0085C29.5948 33.8585 30.7241 35.5566 31.9274 35.5566H39.2778C39.3613 35.5566 39.4505 35.5472 39.5443 35.5302C39.0344 36.2231 38.475 36.8788 37.8726 37.4915L34.7712 36.825ZM14.3693 41.5165C13.5778 41.6873 12.7986 41.1825 12.6283 40.3896C12.459 39.5953 12.9623 38.8156 13.7538 38.6448C14.5453 38.4755 15.325 38.9802 15.4948 39.7731C15.6642 40.5656 15.1604 41.3467 14.3693 41.5165ZM8.77358 18.8255C9.10189 19.5665 8.76792 20.4349 8.02783 20.7627C7.28773 21.0915 6.4217 20.7571 6.0934 20.0156C5.76509 19.2741 6.09906 18.4071 6.83915 18.0783C7.57972 17.75 8.44528 18.084 8.77358 18.8255ZM7.05377 22.9024L10.2118 21.4991C10.8863 21.1995 11.191 20.409 10.8915 19.733L10.241 18.2623H12.7991V29.7924H7.63821C7.19057 28.2189 6.95047 26.558 6.95047 24.8415C6.95047 24.1863 6.98585 23.5387 7.05377 22.9024ZM20.9123 21.7825V18.384H27.0038C27.3184 18.384 29.2255 18.7476 29.2255 20.1736C29.2255 21.3575 27.7627 21.7821 26.5599 21.7821H20.9123V21.7825ZM43.05 24.8415C43.05 25.2925 43.0335 25.7387 43.0005 26.1816H41.1486C40.9632 26.1816 40.8887 26.3033 40.8887 26.4849V27.3354C40.8887 29.3373 39.7599 29.7726 38.7708 29.8835C37.8288 29.9896 36.7844 29.4891 36.6557 28.9127C36.1 25.7873 35.1741 25.1198 33.7118 23.9665C35.5264 22.8141 37.4146 21.1141 37.4146 18.8387C37.4146 16.3816 35.7302 14.834 34.5821 14.075C32.9712 13.0132 31.1877 12.8005 30.7066 12.8005H11.5542C14.1514 9.90188 17.6712 7.84858 21.6524 7.10141L23.9099 9.46981C24.4203 10.0042 25.2656 10.0241 25.7995 9.51321L28.3255 7.09717C33.6184 8.08254 38.0995 11.3774 40.6821 15.8976L38.9528 19.8033C38.6542 20.4792 38.959 21.2698 39.633 21.5693L42.9623 23.0481C43.0198 23.6391 43.05 24.2363 43.05 24.8415ZM23.9108 5.08679C24.4958 4.52641 25.4236 4.54858 25.9835 5.13443C26.5425 5.7217 26.5212 6.65047 25.9349 7.21038C25.35 7.77075 24.4222 7.74905 23.8623 7.16226C23.3038 6.57594 23.325 5.64717 23.9108 5.08679ZM41.0712 18.8967C41.3991 18.1557 42.2651 17.8212 43.0052 18.15C43.7453 18.4783 44.0792 19.3462 43.7509 20.0873C43.4231 20.8288 42.5571 21.1632 41.8165 20.8344C41.0774 20.5061 40.7434 19.6387 41.0712 18.8967Z" fill="black"/>
</svg>
