<svg width="50" height="40" viewBox="0 0 50 40" fill="none" xmlns="http://www.w3.org/2000/svg">
<g clip-path="url(#clip0)">
<path fill-rule="evenodd" clip-rule="evenodd" d="M15.7251 40C34.5939 40 44.9126 24.6093 44.9126 11.2646C44.9126 10.8277 44.9126 10.3908 44.8814 9.95696C46.8893 8.52747 48.6227 6.75726 50.0001 4.72926C48.1288 5.54773 46.143 6.084 44.1095 6.32003C46.2508 5.05717 47.8532 3.07148 48.6189 0.732341C46.6057 1.90896 44.4032 2.73832 42.1064 3.18465C40.5598 1.56529 38.5144 0.492879 36.2865 0.133335C34.0587 -0.226209 31.7725 0.147155 29.7819 1.19566C27.7912 2.24417 26.207 3.90937 25.2742 5.93364C24.3415 7.95792 24.1123 10.2284 24.622 12.3939C20.5439 12.1926 16.5544 11.1493 12.9124 9.33162C9.27034 7.51397 6.05716 4.9626 3.48137 1.84311C2.16945 4.06653 1.7675 6.69869 2.35737 9.20366C2.94724 11.7086 4.48458 13.8981 6.65637 15.3262C5.02403 15.2766 3.42746 14.843 2.00012 14.0616V14.1877C2.00087 16.5199 2.82093 18.7801 4.32121 20.5848C5.82148 22.3895 7.9096 23.6277 10.2314 24.0893C8.72139 24.4946 7.13727 24.5546 5.60012 24.2647C6.25505 26.2719 7.53121 28.0271 9.24988 29.2846C10.9686 30.542 13.0436 31.2387 15.1845 31.277C10.8855 34.599 5.42272 36.1041 -0.00300081 35.4616C4.68868 38.4282 10.1493 40.0007 15.7251 39.9908" fill="white"/>
</g>
<defs>
<clipPath id="clip0">
<rect width="50" height="40" fill="white"/>
</clipPath>
</defs>
</svg>
