<svg width="50" height="50" viewBox="0 0 50 50" fill="none" xmlns="http://www.w3.org/2000/svg">
<path d="M18.5962 18.1809L15 17.877L15.6078 11.2923C16.891 10.3131 18.3599 9.51953 20.0145 8.91172C21.6691 8.30391 23.273 8 24.8263 8C27.5277 8 29.807 8.6247 31.6642 9.87409C33.5214 11.1235 34.45 12.8456 34.45 15.0405C34.45 16.7626 33.9266 18.1809 32.8798 19.2952C31.8668 20.3757 30.6849 21.3212 29.3342 22.1316C28.0173 22.9083 26.8355 23.6849 25.7887 24.4616C24.7757 25.2045 24.2691 26.0824 24.2691 27.0954C24.2691 28.3448 25.1133 28.9695 26.8017 28.9695V31.9073C24.2691 32.1099 22.4119 31.7891 21.2301 30.9449C20.082 30.1007 19.5079 28.9526 19.5079 27.5006C19.5079 25.9473 20.0145 24.698 21.0275 23.7525C22.0405 22.807 23.1886 21.9797 24.4717 21.2706C25.7887 20.5277 26.9536 19.751 27.9667 18.9406C28.9797 18.0964 29.4862 17.0159 29.4862 15.699C29.4862 13.2677 27.7809 12.0521 24.3704 12.0521C22.3782 12.0521 20.6898 12.5924 19.3053 13.6729L18.5962 18.1809ZM20.9768 41.4297V35.8074H26.4471V41.4297H20.9768Z" fill="black"/>
</svg>
