<svg width="92" height="27" viewBox="0 0 92 27" fill="none" xmlns="http://www.w3.org/2000/svg">
<g clip-path="url(#clip0)">
<path d="M92 0H0V27H92V0Z" fill="black"/>
<path d="M87.8691 19.3802C87.7126 19.4299 87.5501 19.4568 87.3863 19.4603C86.848 19.4603 86.5953 19.2241 86.5953 18.5443V13.4127C86.5953 10.717 84.5021 9.40459 82.0276 9.40459C80.137 9.40459 79.1205 9.64077 77.1013 10.4762L76.65 13.1955L79.2766 13.4836L79.6493 12.1521C80.1983 11.8876 80.8039 11.7706 81.409 11.8122C83.2721 11.8122 83.2996 13.252 83.2996 14.4561V14.8478C82.6722 14.7719 82.0407 14.7372 81.409 14.7441C78.7825 14.7441 76.0499 15.4239 76.0499 18.3322C76.0499 20.7917 77.936 21.7128 79.5965 21.7128C80.3649 21.7087 81.1173 21.4865 81.7703 21.0707C82.4234 20.6549 82.9515 20.0618 83.2965 19.357C83.4481 20.7968 84.2892 21.7128 85.8233 21.7128C86.5455 21.7055 87.2547 21.5157 87.8885 21.1603L87.8691 19.3802ZM80.8035 19.3047C80.6223 19.329 80.438 19.3106 80.2647 19.251C80.0914 19.1914 79.9335 19.0922 79.8031 18.9607C79.6727 18.8293 79.5731 18.6691 79.5119 18.4923C79.4507 18.3156 79.4295 18.1268 79.4499 17.9404C79.4499 16.6562 80.4709 16.3163 81.6441 16.3163C82.2003 16.3309 82.755 16.3829 83.3046 16.4719C83.2274 18.441 81.9762 19.3047 80.8035 19.3047ZM76.3816 3.43248L71.4056 21.453H68.1627L73.14 3.43248H76.3816ZM69.6977 3.43248L64.7203 21.453H61.4833L66.4607 3.43248H69.6977ZM55.8805 9.64077H59.326V13.8804H55.8805V9.64077ZM55.8805 17.2087H59.326V21.453H55.8805V17.2087ZM50.8666 17.0531L53.4701 17.3129L52.7572 21.4535H42.7018L42.3706 19.6738L48.7003 12.2091H45.1032L44.5924 14.0411L42.219 13.7767L42.6283 9.63614H52.7355L52.9932 11.4158L46.6085 18.8847H50.3346L50.8666 17.0531ZM34.3755 9.40644C30.2401 9.40644 28.1979 12.2628 28.1979 15.7185C28.1979 19.4909 30.6498 21.7142 34.1964 21.7142C37.872 21.7142 40.5261 19.3302 40.5261 15.5578C40.5261 12.2563 38.5064 9.40644 34.3755 9.40644ZM34.2975 19.1227C32.5124 19.1227 31.5929 17.5505 31.5929 15.5064C31.5929 13.2779 32.637 11.9984 34.3254 11.9984C35.8803 11.9984 37.1316 13.07 37.1316 15.454C37.1311 17.7042 36.0076 19.1208 34.2975 19.1208V19.1227ZM25.2357 18.8865H26.7675V21.4549H21.9418V14.8011C21.9418 12.757 21.2794 11.9729 19.9776 11.9729C18.3952 11.9729 17.7558 13.1247 17.7558 14.7774V18.8847H19.2877V21.453H14.4669V14.8011C14.4669 12.757 13.8045 11.9729 12.5028 11.9729C10.9204 11.9729 10.281 13.1247 10.281 14.7774V18.8847H12.4752V21.453H5.46018V18.8847H6.99206V12.2045H5.46018V9.63799H10.281V11.4177C10.6242 10.7819 11.133 10.2567 11.7504 9.90072C12.3677 9.54472 13.0694 9.37198 13.777 9.40181C15.4375 9.40181 16.9649 10.2136 17.5307 11.9419C17.8195 11.1692 18.3368 10.5087 19.0101 10.0532C19.6833 9.5976 20.4786 9.36982 21.2844 9.40181C23.3496 9.40181 25.2402 10.686 25.2402 13.4854V18.8865H25.2357Z" fill="white"/>
</g>
<defs>
<clipPath id="clip0">
<rect width="92" height="27" fill="white"/>
</clipPath>
</defs>
</svg>
