<svg width="50" height="50" viewBox="0 0 50 50" fill="none" xmlns="http://www.w3.org/2000/svg">
<rect x="3" y="3" width="44" height="44" rx="22" stroke="black" stroke-width="6"/>
<path d="M25.3361 30.902C26.2199 30.902 26.9046 30.6536 27.39 30.1569C27.8755 29.6471 28.112 28.9412 28.0996 28.0392H34C34 30.366 33.2033 32.2745 31.61 33.7647C30.029 35.2549 27.9876 36 25.4855 36C22.5477 36 20.2324 35.0327 18.5394 33.098C16.8465 31.1634 16 28.4837 16 25.0588V24.7843C16 22.6405 16.3734 20.7516 17.1203 19.1176C17.8797 17.4706 18.9689 16.2092 20.388 15.3333C21.8071 14.4444 23.4876 14 25.4295 14C28.056 14 30.1411 14.7647 31.6846 16.2941C33.2282 17.8235 34 19.8954 34 22.5098H28.0996C28.0996 21.4118 27.8444 20.5686 27.334 19.9804C26.8237 19.3922 26.139 19.098 25.2801 19.098C23.6494 19.098 22.6971 20.1895 22.4232 22.3725C22.3361 23.0654 22.2925 24.0196 22.2925 25.2353C22.2925 27.366 22.5353 28.8431 23.0207 29.6667C23.5062 30.4902 24.278 30.902 25.3361 30.902Z" fill="black"/>
</svg>
