<svg width="50" height="50" viewBox="0 0 50 50" fill="none" xmlns="http://www.w3.org/2000/svg">
<path d="M22.5769 4.15719C23.3396 1.9476 26.6604 1.9476 27.4231 4.1572L31.5782 16.195C31.9192 17.1831 32.8975 17.8522 34.0013 17.8522H47.4473C49.9154 17.8522 50.9416 20.8252 48.9449 22.1908L38.0668 29.6305C37.1738 30.2412 36.8002 31.3238 37.1412 32.3119L41.2963 44.3497C42.059 46.5593 39.3724 48.3967 37.3757 47.0311L26.4976 39.5913C25.6046 38.9806 24.3954 38.9806 23.5024 39.5913L12.6243 47.0311C10.6276 48.3967 7.94101 46.5593 8.7037 44.3497L12.8588 32.3119C13.1999 31.3238 12.8262 30.2412 11.9332 29.6305L1.05512 22.1908C-0.941617 20.8252 0.0845727 17.8522 2.55267 17.8522H15.9988C17.1025 17.8522 18.0808 17.1831 18.4218 16.195L22.5769 4.15719Z" fill="black"/>
</svg>
